<svg width="104" height="104" viewBox="0 0 104 104" fill="none" xmlns="http://www.w3.org/2000/svg">
<path d="M52.0226 103.975C51.4707 103.971 50.9124 103.967 50.364 103.95L50.3811 103.397C50.9237 103.414 51.4786 103.422 52.0228 103.422C52.5693 103.422 53.1263 103.413 53.6788 103.396L53.6967 103.948C53.1381 103.966 52.575 103.975 52.0226 103.975ZM47.0387 103.742C45.9375 103.638 44.8253 103.496 43.7333 103.322L43.8205 102.776C44.9009 102.948 46.0012 103.088 47.0909 103.191L47.0387 103.742ZM57.0216 103.736L56.9689 103.185C58.0581 103.081 59.1583 102.94 60.2387 102.766L60.3268 103.312C59.2346 103.488 58.1225 103.631 57.0216 103.736H57.0216ZM40.4613 102.691C39.383 102.446 38.2981 102.163 37.2368 101.85L37.3936 101.319C38.4436 101.63 39.5168 101.909 40.5836 102.151L40.4613 102.691ZM63.5978 102.677L63.4749 102.138C64.5441 101.894 65.6172 101.613 66.664 101.302L66.8214 101.832C65.7633 102.147 64.6786 102.431 63.5978 102.677H63.5978ZM34.0729 100.803C33.0324 100.421 31.9914 99.9997 30.9788 99.5516L31.2027 99.0459C32.2044 99.4889 33.2342 99.9054 34.2636 100.284L34.0729 100.803ZM69.9838 100.781L69.7925 100.262C70.8156 99.8851 71.8419 99.4689 72.8427 99.0248L73.0672 99.5305C72.0552 99.9794 71.0179 100.4 69.9837 100.781H69.9838ZM27.9729 98.1038C26.9937 97.5927 26.0159 97.0417 25.0669 96.4664L25.3537 95.9931C26.2928 96.5628 27.2601 97.1076 28.2288 97.6133L27.9729 98.1038ZM76.0647 98.0835L75.8087 97.5933C76.7751 97.0879 77.7402 96.5431 78.6767 95.974L78.9641 96.4467C78.0174 97.022 77.042 97.5725 76.0647 98.0835H76.0647ZM22.2726 94.6464C21.3657 94.0135 20.4669 93.3423 19.6009 92.6519L19.9459 92.2192C20.8027 92.9026 21.692 93.5665 22.5892 94.1926L22.2726 94.6464ZM81.7538 94.6267L81.4367 94.1734C82.3337 93.5465 83.2218 92.8826 84.0765 92.2L84.4217 92.6322C83.5579 93.322 82.6603 93.993 81.7538 94.6267ZM17.0623 90.4907C16.2425 89.7466 15.4365 88.9668 14.6671 88.1735L15.0642 87.7883C15.8255 88.5732 16.623 89.3447 17.4343 90.0812L17.0623 90.4907ZM86.9577 90.4716L86.5855 90.0621C87.3948 89.3271 88.1916 88.5551 88.9541 87.7683L89.3512 88.1529C88.5808 88.9484 87.7754 89.7285 86.9577 90.4716ZM12.4247 85.709C11.7068 84.8673 11.007 83.9919 10.3443 83.107L10.7871 82.7753C11.4428 83.651 12.1352 84.5172 12.8455 85.3497L12.4247 85.709ZM91.5931 85.686L91.1723 85.3273C91.8824 84.494 92.5749 83.6267 93.2305 82.7499L93.6735 83.0811C93.0109 83.9673 92.311 84.8438 91.5931 85.686V85.686ZM8.43445 80.3778C7.82927 79.4511 7.24691 78.4941 6.70346 77.5333L7.18506 77.261C7.72258 78.2115 8.29886 79.1585 8.89769 80.0753L8.43445 80.3778ZM95.584 80.3478L95.1204 80.0458C95.7196 79.1272 96.2957 78.1786 96.8335 77.2259L97.3154 77.4976C96.7719 78.4608 96.1893 79.4197 95.584 80.3478ZM5.1587 74.5842C4.67736 73.5886 4.22263 72.5654 3.8072 71.5428L4.3196 71.3348C4.73071 72.3461 5.18057 73.3585 5.65678 74.3433L5.1587 74.5842ZM98.8607 74.541L98.3626 74.3006C98.8385 73.3142 99.2885 72.2991 99.7002 71.2829L100.213 71.4904C99.7969 72.5176 99.342 73.544 98.8607 74.541ZM2.65248 68.4168C2.30255 67.3661 1.98288 66.2913 1.70223 65.2222L2.23732 65.0818C2.51486 66.1392 2.83117 67.2027 3.1773 68.2418L2.65248 68.4168ZM101.365 68.3582L100.84 68.1842C101.184 67.1462 101.5 66.0825 101.777 65.0229L102.312 65.1628C102.032 66.2341 101.713 67.3091 101.365 68.3582ZM0.960106 61.9739C0.748745 60.8886 0.569932 59.7819 0.42853 58.6845L0.977123 58.6137C1.11704 59.6996 1.29396 60.7943 1.50303 61.868L0.960106 61.9739ZM103.05 61.9131L102.507 61.8083C102.715 60.7349 102.89 59.6396 103.029 58.5529L103.578 58.6232C103.438 59.7214 103.26 60.8283 103.05 61.9131V61.9131ZM0.108719 55.3681C0.0378147 54.2655 0.00121424 53.1448 0 52.0371L0.553185 52.0365C0.5544 53.1326 0.590594 54.2414 0.660824 55.3324L0.108719 55.3681ZM103.894 55.3062L103.342 55.2711C103.411 54.1812 103.446 53.0724 103.446 51.976L103.445 51.8548H103.998L103.999 51.9741C103.999 53.084 103.963 54.2044 103.894 55.3062ZM0.653126 48.7412L0.101021 48.7072C0.169616 47.6024 0.274569 46.4863 0.412998 45.3897L0.961862 45.4588C0.82478 46.5441 0.720924 47.6483 0.653126 48.7412ZM103.334 48.5597C103.262 47.4663 103.155 46.3623 103.014 45.2787L103.562 45.2073C103.705 46.3026 103.814 47.4182 103.886 48.5235L103.334 48.5597ZM1.47994 42.2034L0.93675 42.0989C1.14541 41.0132 1.39258 39.9197 1.67104 38.8487L2.2064 38.9878C1.93089 40.0474 1.68643 41.1292 1.47994 42.2034ZM102.484 42.025C102.273 40.9503 102.024 39.8693 101.746 38.812L102.281 38.671C102.563 39.7396 102.813 40.8323 103.027 41.9186L102.484 42.025ZM3.13908 35.8256L2.61372 35.6522C2.96095 34.6011 3.34747 33.5467 3.76277 32.5182L4.27571 32.7254C3.86487 33.7428 3.48253 34.7858 3.13908 35.8256ZM100.802 35.6531C100.455 34.6148 100.07 33.5748 99.6567 32.5617L100.169 32.3529C100.586 33.3769 100.976 34.4282 101.327 35.4776L100.802 35.6531ZM5.61005 29.7056L5.11143 29.4657C5.59128 28.4682 6.11016 27.4729 6.65348 26.5075L7.13563 26.7789C6.59798 27.7339 6.08477 28.7186 5.61005 29.7056ZM98.3161 29.5547C97.8396 28.5725 97.3245 27.5914 96.7843 26.6389L97.2657 26.3661C97.8116 27.3288 98.3323 28.3205 98.8137 29.3135L98.3161 29.5547ZM8.84543 23.9567L8.38165 23.655C8.98494 22.7277 9.62659 21.8073 10.2886 20.9196L10.7321 21.2502C10.0771 22.1286 9.44224 23.0392 8.84543 23.9567ZM95.0683 23.8265C94.4698 22.9123 93.8331 22.0046 93.1757 21.1287L93.6181 20.7967C94.2826 21.6821 94.9262 22.5995 95.5313 23.5235L95.0683 23.8265ZM12.7874 18.6705L12.366 18.3124C13.0825 17.4695 13.8357 16.6386 14.6047 15.843L15.0026 16.2274C14.2417 17.0146 13.4965 17.8367 12.7874 18.6705ZM91.1142 18.5565C90.403 17.725 89.6553 16.9054 88.8925 16.1204L89.289 15.735C90.0602 16.5281 90.8157 17.3566 91.5345 18.197L91.1142 18.5565ZM17.3683 13.9305L16.9959 13.5216C17.8144 12.7759 18.6669 12.0478 19.5294 11.3577L19.8751 11.7896C19.0217 12.4724 18.1783 13.1928 17.3683 13.9305ZM86.5196 13.8302C85.7085 13.0959 84.8628 12.3776 84.0054 11.6956L84.3501 11.2626C85.2163 11.9521 86.0712 12.6779 86.8907 13.4201L86.5196 13.8302ZM22.5126 9.81308L22.1952 9.36011C23.1004 8.72575 24.0382 8.11247 24.9826 7.53713L25.2704 8.00956C24.3361 8.57882 23.4081 9.18562 22.5126 9.81308ZM81.36 9.72503C80.4594 9.09824 79.5286 8.49346 78.5932 7.92745L78.8796 7.45422C79.825 8.02617 80.766 8.63743 81.676 9.27098L81.36 9.72503ZM28.1368 6.38674L27.8799 5.89676C28.8579 5.38382 29.8659 4.89573 30.8757 4.44613L31.1007 4.95151C30.1016 5.39624 29.1045 5.8792 28.1368 6.38674ZM75.7163 6.31084C74.7448 5.80519 73.7438 5.32453 72.7408 4.88209L72.9641 4.3759C73.9778 4.82307 74.9898 5.309 75.9718 5.82005L75.7163 6.31084ZM34.1496 3.71062L33.9576 3.19173C34.9948 2.80804 36.0583 2.45312 37.1188 2.13695L37.2768 2.66718C36.2277 2.97983 35.1756 3.33098 34.1496 3.71062H34.1496ZM69.6784 3.64782C68.6502 3.27169 67.5968 2.92433 66.5474 2.6156L66.7035 2.08481C67.7643 2.39693 68.8292 2.74809 69.8685 3.1284L69.6784 3.64782ZM40.4648 1.82782L40.3413 1.28868C41.4176 1.04207 42.5179 0.827199 43.6117 0.649602L43.7003 1.19576C42.6181 1.37133 41.5295 1.58391 40.4648 1.82782ZM63.3563 1.78757C62.2897 1.54718 61.2003 1.33839 60.1185 1.16686L60.2052 0.62043C61.2986 0.79384 62.3997 1.00493 63.4779 1.2479L63.3563 1.78757ZM46.9697 0.772367L46.9162 0.221883C48.0145 0.115325 49.1331 0.0425294 50.241 0.00565965L50.2594 0.558566C49.1631 0.595046 48.0564 0.667024 46.9697 0.772367ZM56.8476 0.755219C55.7593 0.653524 54.6522 0.585456 53.5573 0.552907L53.5738 0C54.6803 0.0329532 55.7992 0.101693 56.8991 0.204469L56.8476 0.755219Z" fill="#D0CDE1"/>
</svg>
