<svg width="3" height="5" viewBox="0 0 3 5" fill="none" xmlns="http://www.w3.org/2000/svg">
<path d="M0.600279 4.80236C0.481555 4.80235 0.365496 4.76715 0.266782 4.70118C0.168068 4.63522 0.0911244 4.54147 0.0456911 4.43178C0.000257859 4.32209 -0.0116227 4.2014 0.0115382 4.08496C0.034699 3.96851 0.0918634 3.86155 0.175812 3.7776L1.5522 2.40117L0.175812 1.02475C0.0632372 0.912172 0 0.759485 0 0.60028C0 0.441075 0.0632372 0.288397 0.175812 0.175822C0.288387 0.0632471 0.441074 0 0.600279 0C0.759484 0 0.912171 0.0632471 1.02475 0.175822L2.82563 1.9767C2.88138 2.03244 2.9256 2.09862 2.95577 2.17145C2.98594 2.24428 3.00146 2.32234 3.00146 2.40117C3.00146 2.48 2.98594 2.55806 2.95577 2.63089C2.9256 2.70372 2.88138 2.7699 2.82563 2.82564L1.02475 4.62653C0.969067 4.68235 0.902905 4.72663 0.830061 4.7568C0.757217 4.78698 0.679126 4.80246 0.600279 4.80236Z" fill="white"/>
</svg>
