<svg width="12" height="15" viewBox="0 0 12 15" fill="none" xmlns="http://www.w3.org/2000/svg">
<path d="M11.6518 6.42857H6.9643C6.53806 6.42857 6.12928 6.25925 5.82788 5.95785C5.52648 5.65645 5.35716 5.24767 5.35716 4.82143V0.133925C5.35716 0.116338 5.35369 0.0989226 5.34696 0.0826737C5.34023 0.0664247 5.33036 0.0516593 5.31793 0.039223C5.30549 0.0267866 5.29073 0.0169222 5.27448 0.0101919C5.25823 0.00346153 5.24081 -3.75473e-07 5.22322 0H2.14286C1.57454 0 1.02949 0.225762 0.62763 0.627625C0.225766 1.02949 7.58337e-07 1.57453 0 2.14285V12.8571C0 13.4255 0.225766 13.9705 0.62763 14.3724C1.02949 14.7742 1.57454 15 2.14286 15H9.64289C10.2112 15 10.7563 14.7742 11.1581 14.3724C11.56 13.9705 11.7858 13.4255 11.7858 12.8571V6.56249C11.7858 6.54491 11.7823 6.52749 11.7756 6.51124C11.7688 6.49499 11.759 6.48023 11.7465 6.46779C11.7341 6.45536 11.7193 6.44549 11.7031 6.43876C11.6868 6.43203 11.6694 6.42857 11.6518 6.42857ZM8.57145 11.7857H3.21429C3.07221 11.7857 2.93595 11.7293 2.83548 11.6288C2.73502 11.5283 2.67857 11.3921 2.67857 11.25C2.67857 11.1079 2.73502 10.9717 2.83548 10.8712C2.93595 10.7707 3.07221 10.7143 3.21429 10.7143H8.57145C8.71353 10.7143 8.84979 10.7707 8.95025 10.8712C9.05072 10.9717 9.10716 11.1079 9.10716 11.25C9.10716 11.3921 9.05072 11.5283 8.95025 11.6288C8.84979 11.7293 8.71353 11.7857 8.57145 11.7857ZM8.57145 9.10713H3.21429C3.07221 9.10713 2.93595 9.05069 2.83548 8.95023C2.73502 8.84976 2.67857 8.7135 2.67857 8.57142C2.67857 8.42934 2.73502 8.29308 2.83548 8.19261C2.93595 8.09215 3.07221 8.03571 3.21429 8.03571H8.57145C8.71353 8.03571 8.84979 8.09215 8.95025 8.19261C9.05072 8.29308 9.10716 8.42934 9.10716 8.57142C9.10716 8.7135 9.05072 8.84976 8.95025 8.95023C8.84979 9.05069 8.71353 9.10713 8.57145 9.10713Z" fill="white"/>
</svg>
