<svg width="9" height="7" viewBox="0 0 9 7" fill="none" xmlns="http://www.w3.org/2000/svg">
<path d="M8.82487 4.43484L8.81617 4.42614L7.85429 3.47408C7.79795 3.41792 7.73104 3.37348 7.65742 3.34332C7.58381 3.31317 7.50497 3.29789 7.42542 3.29837C7.29653 3.29849 7.17094 3.33915 7.06643 3.41458C7.06643 3.40251 7.06811 3.39072 7.06895 3.38033C7.10777 3.13448 7.05591 2.8829 6.92301 2.67246C6.71111 2.38683 6.47845 2.11721 6.22693 1.86578L6.22468 1.86353C5.52153 1.18892 4.69517 0.655862 3.79065 0.293425C3.31792 0.0994079 2.8118 -0.0002347 2.3008 0.000116305C1.63935 -0.00586831 0.996555 0.219274 0.483406 0.636687C0.337348 0.776191 0.204142 0.928564 0.0854029 1.09195C0.0286738 1.17025 -0.00125608 1.26477 4.04118e-05 1.36145C0.00133691 1.45813 0.0338015 1.55182 0.0926099 1.62857C0.151418 1.70532 0.233417 1.76104 0.326433 1.78745C0.419449 1.81385 0.518503 1.80953 0.608867 1.77513C0.687583 1.7457 0.768009 1.72105 0.849694 1.70131C1.01981 1.66533 1.19428 1.65445 1.36755 1.66903C1.72677 1.70651 2.07102 1.83278 2.36929 2.03644C2.53652 2.17727 2.66955 2.35428 2.75834 2.55407C2.84712 2.75387 2.88934 2.97123 2.88179 3.18973C2.75715 3.54474 2.56671 3.87306 2.32044 4.15751C2.25478 4.24407 2.22274 4.35148 2.23022 4.45986C2.2377 4.56824 2.28421 4.67023 2.36114 4.74694L3.32695 5.71275C3.40811 5.7941 3.51736 5.84125 3.63222 5.84449C3.74709 5.84773 3.85883 5.8068 3.94444 5.73015C4.21754 5.48624 4.6335 5.11856 4.77889 5.02846C4.90319 4.9453 5.04389 4.88979 5.19149 4.86567C5.30147 4.85488 5.41211 4.87821 5.50838 4.93247C5.50886 4.93728 5.50833 4.94213 5.50683 4.94672C5.50533 4.95131 5.5029 4.95553 5.49968 4.95913L5.44859 5.00769L5.44017 5.01554C5.32668 5.12861 5.26275 5.28213 5.26246 5.44232C5.26216 5.60252 5.3255 5.75627 5.43857 5.86976L5.44157 5.87274L6.40317 6.82451C6.45952 6.88063 6.52644 6.92503 6.60005 6.95514C6.67367 6.98525 6.75251 7.00047 6.83204 6.99994C6.99174 7.00018 7.14516 6.93769 7.25924 6.82592L8.81698 5.28724C8.82231 5.28191 8.82765 5.2763 8.8327 5.27068C8.9372 5.15612 8.99449 5.00627 8.99304 4.85122C8.99158 4.69617 8.9315 4.54741 8.82487 4.43484Z" fill="white"/>
</svg>
