<svg width="34" height="52" viewBox="0 0 34 52" fill="none" xmlns="http://www.w3.org/2000/svg">
<path d="M3.92427 22.5646L5.0455 33.2162L2.80307 39.6633L1.40152 45.83C1.40152 45.83 1.40155 51.7164 7.00766 51.9967C12.6138 52.277 17.379 34.3375 17.379 34.3375C17.379 34.3375 18.2199 38.2617 18.7805 40.5042C19.3411 42.7466 28.8715 51.7164 28.8715 51.7164C28.8715 51.7164 31.1139 51.4361 33.0761 46.9512C35.0382 42.4663 29.1518 38.2618 29.1518 38.2618L27.47 32.3753L28.0306 25.0874L31.9549 6.02659L20.3222 0L21.5836 16.1176L17.379 28.7313L11.0721 0.840919L8.96979 2.3826L0 6.02659L3.92427 22.5646Z" fill="#2F2E41"/>
</svg>
