<svg width="11" height="5" viewBox="0 0 11 5" fill="none" xmlns="http://www.w3.org/2000/svg">
<path d="M0.550056 4.40048C0.404171 4.40048 0.264266 4.34253 0.161109 4.23937C0.0579524 4.13622 0 3.99631 0 3.85043C0 3.70454 0.0579524 3.56463 0.161109 3.46147C0.264266 3.35832 0.404171 3.30036 0.550056 3.30036H7.70086C8.28362 3.29691 8.8415 3.06376 9.25343 2.65153C9.66536 2.2393 9.89808 1.68123 9.90111 1.09847V0.550064C9.90111 0.404179 9.95906 0.264265 10.0622 0.161109C10.1654 0.0579522 10.3053 0 10.4512 0C10.5971 0 10.737 0.0579522 10.8401 0.161109C10.9433 0.264265 11.0012 0.404179 11.0012 0.550064V1.10013C10.9969 1.97383 10.648 2.81054 10.0304 3.4285C9.41273 4.04645 8.57619 4.39575 7.70249 4.40049L0.550056 4.40048Z" fill="white"/>
</svg>
