<svg width="15" height="15" viewBox="0 0 15 15" fill="none" xmlns="http://www.w3.org/2000/svg">
<path d="M4.50011 7.49999C4.50001 7.40148 4.51937 7.30393 4.55708 7.21294C4.5948 7.12194 4.65012 7.03929 4.71986 6.96974L8.46986 3.21974C8.5395 3.1501 8.62216 3.09487 8.71314 3.05718C8.80412 3.0195 8.90164 3.0001 9.00011 3.0001C9.09859 3.0001 9.1961 3.0195 9.28708 3.05718C9.37806 3.09487 9.46073 3.1501 9.53036 3.21974C9.6 3.28937 9.65523 3.37204 9.69292 3.46302C9.7306 3.554 9.75 3.65151 9.75 3.74999C9.75 3.84846 9.7306 3.94597 9.69292 4.03696C9.65523 4.12794 9.6 4.2106 9.53036 4.28024L6.31061 7.49999L9.53036 10.7197C9.6 10.7894 9.65523 10.872 9.69292 10.963C9.7306 11.054 9.75 11.1515 9.75 11.25C9.75 11.3485 9.7306 11.446 9.69292 11.537C9.65523 11.6279 9.6 11.7106 9.53036 11.7802C9.46073 11.8499 9.37806 11.9051 9.28708 11.9428C9.1961 11.9805 9.09859 11.9999 9.00011 11.9999C8.90164 11.9999 8.80412 11.9805 8.71314 11.9428C8.62216 11.9051 8.5395 11.8499 8.46986 11.7802L4.71986 8.03024C4.65012 7.96068 4.5948 7.87803 4.55708 7.78704C4.51937 7.69604 4.50001 7.59849 4.50011 7.49999Z" fill="#1DBF73"/>
</svg>
