<svg width="28" height="28" viewBox="0 0 28 28" fill="none" xmlns="http://www.w3.org/2000/svg">
<path fill-rule="evenodd" clip-rule="evenodd" d="M8.71047 1.24375C10.079 1.18075 10.5153 1.16675 14.0013 1.16675C17.4873 1.16675 17.9236 1.18191 19.291 1.24375C20.6583 1.30558 21.5916 1.52375 22.4083 1.83991C23.2635 2.16308 24.0393 2.66825 24.681 3.32158C25.3343 3.96208 25.8383 4.73675 26.1603 5.59308C26.4776 6.40975 26.6946 7.34308 26.7576 8.70808C26.8206 10.0789 26.8346 10.5152 26.8346 14.0001C26.8346 17.4861 26.8195 17.9224 26.7576 19.2909C26.6958 20.6559 26.4776 21.5892 26.1603 22.4059C25.8383 23.2624 25.3335 24.0383 24.681 24.6797C24.0393 25.3331 23.2635 25.8371 22.4083 26.1591C21.5916 26.4764 20.6583 26.6934 19.2933 26.7564C17.9236 26.8194 17.4873 26.8334 14.0013 26.8334C10.5153 26.8334 10.079 26.8182 8.71047 26.7564C7.34547 26.6946 6.41214 26.4764 5.59547 26.1591C4.73904 25.837 3.96309 25.3322 3.32164 24.6797C2.66875 24.0389 2.1635 23.2633 1.84114 22.4071C1.52497 21.5904 1.30797 20.6571 1.24497 19.2921C1.18197 17.9212 1.16797 17.4849 1.16797 14.0001C1.16797 10.5141 1.18314 10.0777 1.24497 8.71041C1.3068 7.34308 1.52497 6.40975 1.84114 5.59308C2.16398 4.73684 2.66961 3.96128 3.3228 3.32041C3.96335 2.66767 4.73852 2.16243 5.5943 1.83991C6.41097 1.52375 7.3443 1.30675 8.7093 1.24375H8.71047ZM19.1871 3.55375C17.8338 3.49191 17.4278 3.47908 14.0013 3.47908C10.5748 3.47908 10.1688 3.49191 8.81547 3.55375C7.56363 3.61091 6.88464 3.81975 6.43197 3.99591C5.83347 4.22925 5.4053 4.50575 4.95614 4.95491C4.53035 5.36914 4.20268 5.87341 3.99714 6.43075C3.82097 6.88341 3.61214 7.56241 3.55497 8.81425C3.49314 10.1676 3.4803 10.5736 3.4803 14.0001C3.4803 17.4266 3.49314 17.8326 3.55497 19.1859C3.61214 20.4377 3.82097 21.1167 3.99714 21.5694C4.20247 22.1259 4.5303 22.6311 4.95614 23.0452C5.3703 23.4711 5.87547 23.7989 6.43197 24.0042C6.88464 24.1804 7.56363 24.3892 8.81547 24.4464C10.1688 24.5082 10.5736 24.5211 14.0013 24.5211C17.429 24.5211 17.8338 24.5082 19.1871 24.4464C20.439 24.3892 21.118 24.1804 21.5706 24.0042C22.1691 23.7709 22.5973 23.4944 23.0465 23.0452C23.4723 22.6311 23.8001 22.1259 24.0055 21.5694C24.1816 21.1167 24.3905 20.4377 24.4476 19.1859C24.5095 17.8326 24.5223 17.4266 24.5223 14.0001C24.5223 10.5736 24.5095 10.1676 24.4476 8.81425C24.3905 7.56241 24.1816 6.88341 24.0055 6.43075C23.7721 5.83225 23.4956 5.40408 23.0465 4.95491C22.6322 4.52916 22.128 4.20149 21.5706 3.99591C21.118 3.81975 20.439 3.61091 19.1871 3.55375ZM12.3621 17.9562C13.2776 18.3373 14.2969 18.3887 15.2461 18.1018C16.1952 17.8148 17.0153 17.2071 17.5662 16.3827C18.1171 15.5582 18.3647 14.5681 18.2667 13.5814C18.1687 12.5946 17.7311 11.6725 17.0288 10.9726C16.5811 10.5251 16.0397 10.1825 15.4437 9.96942C14.8477 9.75631 14.2118 9.678 13.5819 9.74013C12.952 9.80226 12.3436 10.0033 11.8007 10.3287C11.2578 10.6542 10.7938 11.0959 10.4422 11.6222C10.0905 12.1485 9.85986 12.7463 9.7669 13.3724C9.67395 13.9985 9.72098 14.6374 9.9046 15.2432C10.0882 15.8489 10.4039 16.4065 10.8288 16.8756C11.2538 17.3447 11.7774 17.7138 12.3621 17.9562ZM9.33697 9.33575C9.9495 8.72322 10.6767 8.23733 11.477 7.90584C12.2773 7.57434 13.1351 7.40372 14.0013 7.40372C14.8675 7.40372 15.7253 7.57434 16.5256 7.90584C17.3259 8.23733 18.0531 8.72322 18.6656 9.33575C19.2782 9.94828 19.764 10.6755 20.0955 11.4758C20.427 12.2761 20.5977 13.1338 20.5977 14.0001C20.5977 14.8663 20.427 15.7241 20.0955 16.5244C19.764 17.3247 19.2782 18.0519 18.6656 18.6644C17.4286 19.9015 15.7508 20.5964 14.0013 20.5964C12.2518 20.5964 10.574 19.9015 9.33697 18.6644C8.09991 17.4274 7.40494 15.7495 7.40494 14.0001C7.40494 12.2506 8.09991 10.5728 9.33697 9.33575ZM22.0606 8.38608C22.2124 8.2429 22.3339 8.07071 22.418 7.87972C22.502 7.68873 22.5469 7.48281 22.55 7.27417C22.553 7.06552 22.5141 6.85839 22.4357 6.66503C22.3573 6.47167 22.2408 6.29601 22.0933 6.14846C21.9457 6.00091 21.7701 5.88446 21.5767 5.80602C21.3833 5.72757 21.1762 5.68872 20.9675 5.69176C20.7589 5.6948 20.553 5.73968 20.362 5.82373C20.171 5.90778 19.9988 6.02929 19.8556 6.18108C19.5772 6.47628 19.4247 6.86839 19.4306 7.27417C19.4365 7.67994 19.6004 8.06744 19.8873 8.3544C20.1743 8.64136 20.5618 8.80518 20.9675 8.8111C21.3733 8.81701 21.7654 8.66455 22.0606 8.38608Z" fill="#F7F6FF"/>
</svg>
