<svg width="4" height="4" viewBox="0 0 4 4" fill="none" xmlns="http://www.w3.org/2000/svg">
<path d="M3.5599 1.57659C3.43899 1.56159 3.31676 1.59124 3.21619 1.66C3.01653 1.79654 2.81595 1.93154 2.61348 2.06308C2.52558 2.11962 2.42123 2.14499 2.31718 2.13511C2.21313 2.12523 2.11542 2.08066 2.03974 2.00858C1.96405 1.9365 1.91478 1.84108 1.89984 1.73763C1.8849 1.63419 1.90515 1.52872 1.95734 1.43816L2.33696 0.782028C2.39123 0.702634 2.42145 0.609267 2.42399 0.513129C2.42654 0.41699 2.4013 0.322173 2.3513 0.240019C2.30131 0.157866 2.22867 0.0918669 2.14211 0.0499566C2.05555 0.00804634 1.95874 -0.0079956 1.86328 0.00373341C1.44194 0.0570143 1.05031 0.248925 0.750038 0.549257C0.635679 0.663926 0.28792 1.01199 0.100765 2.33833C0.0474908 2.7193 0.0139181 3.10278 0.000164404 3.48721C-0.00151823 3.55284 0.00972845 3.61816 0.0332891 3.67944C0.0568498 3.74071 0.0922484 3.79675 0.137465 3.84435C0.182682 3.89194 0.236826 3.93015 0.296816 3.95682C0.356805 3.98349 0.421475 3.99809 0.487104 3.99977C0.491425 3.99988 0.495752 3.99994 0.50008 3.99993H0.512566C0.897296 3.98631 1.28108 3.95294 1.66239 3.89995C2.98936 3.71248 3.33742 3.36442 3.45178 3.25006C3.75351 2.94966 3.94497 2.55618 3.99514 2.13337C4.0112 2.00183 3.97437 1.8693 3.89276 1.76489C3.81115 1.66049 3.69143 1.59276 3.5599 1.57659Z" fill="white"/>
</svg>
