<svg width="2" height="2" viewBox="0 0 2 2" fill="none" xmlns="http://www.w3.org/2000/svg">
<path d="M0.99951 1.51491e-07C0.768148 0.000126718 0.543977 0.0804683 0.36521 0.227335C0.186442 0.374202 0.0641395 0.578502 0.0191185 0.805439C-0.0259025 1.03238 0.00915394 1.26791 0.118317 1.4719C0.22748 1.67588 0.403996 1.83572 0.617788 1.92415C0.831579 2.01259 1.06941 2.02415 1.29078 1.95689C1.51215 1.88963 1.70336 1.74771 1.83181 1.55529C1.96027 1.36286 2.01801 1.13184 1.99524 0.901609C1.97247 0.671374 1.87057 0.456161 1.70691 0.29263C1.61399 0.199784 1.50371 0.126152 1.38233 0.0759419C1.26095 0.025732 1.13086 -7.21435e-05 0.99951 1.51491e-07Z" fill="white"/>
</svg>
