<svg width="3" height="5" viewBox="0 0 3 5" fill="none" xmlns="http://www.w3.org/2000/svg">
<path d="M2.4012 4.80195C2.32235 4.80205 2.24426 4.78657 2.17141 4.75639C2.09857 4.72622 2.03241 4.68194 1.97673 4.62612L0.175842 2.82523C0.120094 2.7695 0.0758721 2.70333 0.045701 2.6305C0.0155298 2.55767 0 2.47961 0 2.40078C0 2.32195 0.0155298 2.24389 0.045701 2.17106C0.0758721 2.09823 0.120094 2.03205 0.175842 1.97631L1.97673 0.175429C2.08934 0.0630249 2.24197 -7.26538e-05 2.40108 6.27818e-08C2.56019 7.27794e-05 2.71276 0.0633148 2.82527 0.175822C2.93778 0.288329 3.00101 0.440894 3.00108 0.600003C3.00116 0.759112 2.93806 0.911741 2.82565 1.02435L1.44927 2.40078L2.82565 3.77719C2.9096 3.86115 2.96678 3.96811 2.98994 4.08455C3.0131 4.20099 3.00121 4.32169 2.95577 4.43137C2.91034 4.54106 2.83341 4.63481 2.73469 4.70078C2.63598 4.76674 2.51992 4.80195 2.4012 4.80195Z" fill="white"/>
</svg>
