<svg width="69" height="67" viewBox="0 0 69 67" fill="none" xmlns="http://www.w3.org/2000/svg">
<g filter="url(#filter0_d_0_618)">
<path d="M33.2416 20.6008C33.6092 19.856 34.6712 19.856 35.0388 20.6008L38.6192 27.8555C38.7652 28.1513 39.0474 28.3563 39.3738 28.4037L47.3798 29.5671C48.2018 29.6865 48.53 30.6966 47.9352 31.2763L42.142 36.9233C41.9058 37.1536 41.798 37.4853 41.8538 37.8103L43.2214 45.784C43.3618 46.6027 42.5025 47.2269 41.7673 46.8404L34.6065 43.0758C34.3146 42.9223 33.9658 42.9223 33.6739 43.0758L26.5131 46.8404C25.7779 47.2269 24.9186 46.6027 25.0591 45.784L26.4266 37.8103C26.4824 37.4853 26.3746 37.1536 26.1384 36.9233L20.3452 31.2763C19.7504 30.6966 20.0786 29.6865 20.9006 29.5671L28.9066 28.4037C29.233 28.3563 29.5152 28.1513 29.6612 27.8555L33.2416 20.6008Z" fill="#FBA457"/>
</g>
<defs>
<filter id="filter0_d_0_618" x="0" y="0" width="68.2804" height="67" filterUnits="userSpaceOnUse" color-interpolation-filters="sRGB">
<feFlood flood-opacity="0" result="BackgroundImageFix"/>
<feColorMatrix in="SourceAlpha" type="matrix" values="0 0 0 0 0 0 0 0 0 0 0 0 0 0 0 0 0 0 127 0" result="hardAlpha"/>
<feOffset/>
<feGaussianBlur stdDeviation="10"/>
<feColorMatrix type="matrix" values="0 0 0 0 1 0 0 0 0 0.740061 0 0 0 0 0.51 0 0 0 0.9 0"/>
<feBlend mode="normal" in2="BackgroundImageFix" result="effect1_dropShadow_0_618"/>
<feBlend mode="normal" in="SourceGraphic" in2="effect1_dropShadow_0_618" result="shape"/>
</filter>
</defs>
</svg>
