<svg width="29" height="27" viewBox="0 0 29 27" fill="none" xmlns="http://www.w3.org/2000/svg">
<path d="M13.2408 0.56039C13.6095 -0.186759 14.6749 -0.186757 15.0437 0.560392L18.6353 7.83785C18.7818 8.13454 19.0648 8.34018 19.3922 8.38776L27.4234 9.55476C28.2479 9.67457 28.5771 10.6878 27.9805 11.2694L22.1691 16.9341C21.9322 17.1651 21.8241 17.4978 21.88 17.8239L23.2519 25.8226C23.3927 26.6438 22.5308 27.27 21.7933 26.8823L14.61 23.1058C14.3172 22.9519 13.9673 22.9519 13.6745 23.1058L6.49118 26.8823C5.7537 27.27 4.89176 26.6438 5.03261 25.8226L6.40449 17.8239C6.46042 17.4978 6.35231 17.1651 6.11539 16.9341L0.303991 11.2694C-0.292643 10.6878 0.0365884 9.67457 0.861116 9.55475L8.89227 8.38776C9.21969 8.34018 9.50273 8.13454 9.64916 7.83785L13.2408 0.56039Z" fill="#656084"/>
</svg>
