<svg width="24" height="24" viewBox="0 0 24 24" fill="none" xmlns="http://www.w3.org/2000/svg">
<path fill-rule="evenodd" clip-rule="evenodd" d="M11.9999 0C5.38317 0 0 5.38317 0 11.9999C0 14.0735 0.539997 16.1039 1.56479 17.9087L0.121199 21.5579C-0.428398 23.0087 0.992395 24.4295 2.44319 23.8787L6.09117 22.4339C7.89138 23.4601 9.92779 23.9998 11.9999 23.9999C18.6167 23.9999 23.9999 18.6167 23.9999 11.9999C23.9999 5.38317 18.6167 0 11.9999 0ZM6.35157 11.1515C6.46275 11.0397 6.59494 10.951 6.74054 10.8904C6.88614 10.8299 7.04227 10.7987 7.19996 10.7987C7.35765 10.7987 7.51378 10.8299 7.65938 10.8904C7.80498 10.951 7.93717 11.0397 8.04836 11.1515C8.16018 11.2627 8.24892 11.3949 8.30947 11.5405C8.37002 11.6861 8.4012 11.8422 8.4012 11.9999C8.4012 12.1576 8.37002 12.3138 8.30947 12.4594C8.24892 12.605 8.16018 12.7371 8.04836 12.8483C7.93717 12.9602 7.80498 13.0489 7.65938 13.1094C7.51378 13.17 7.35765 13.2012 7.19996 13.2012C7.04227 13.2012 6.88614 13.17 6.74054 13.1094C6.59494 13.0489 6.46275 12.9602 6.35157 12.8483C6.23974 12.7371 6.15101 12.605 6.09045 12.4594C6.0299 12.3138 5.99873 12.1576 5.99873 11.9999C5.99873 11.8422 6.0299 11.6861 6.09045 11.5405C6.15101 11.3949 6.23974 11.2627 6.35157 11.1515ZM11.1515 11.1515C11.2627 11.0397 11.3949 10.951 11.5405 10.8904C11.6861 10.8299 11.8422 10.7987 11.9999 10.7987C12.1576 10.7987 12.3138 10.8299 12.4594 10.8904C12.605 10.951 12.7371 11.0397 12.8483 11.1515C12.9602 11.2627 13.0489 11.3949 13.1094 11.5405C13.17 11.6861 13.2012 11.8422 13.2012 11.9999C13.2012 12.1576 13.17 12.3138 13.1094 12.4594C13.0489 12.605 12.9602 12.7371 12.8483 12.8483C12.6228 13.0724 12.3178 13.1982 11.9999 13.1982C11.682 13.1982 11.377 13.0724 11.1515 12.8483C10.9275 12.6228 10.8017 12.3178 10.8017 11.9999C10.8017 11.682 10.9275 11.377 11.1515 11.1515ZM16.7999 10.7999C16.6422 10.7995 16.4859 10.8302 16.3401 10.8903C16.1943 10.9505 16.0619 11.0388 15.9503 11.1504C15.8388 11.2619 15.7504 11.3944 15.6903 11.5402C15.6302 11.686 15.5994 11.8422 15.5999 11.9999C15.5994 12.1577 15.6302 12.3139 15.6903 12.4597C15.7504 12.6055 15.8388 12.738 15.9503 12.8495C16.0619 12.961 16.1943 13.0494 16.3401 13.1096C16.4859 13.1697 16.6422 13.2004 16.7999 13.1999C16.9576 13.2004 17.1139 13.1697 17.2597 13.1096C17.4055 13.0494 17.538 12.961 17.6495 12.8495C17.761 12.738 17.8494 12.6055 17.9095 12.4597C17.9697 12.3139 18.0004 12.1577 17.9999 11.9999C18.0004 11.8422 17.9697 11.686 17.9095 11.5402C17.8494 11.3944 17.761 11.2619 17.6495 11.1504C17.538 11.0388 17.4055 10.9505 17.2597 10.8903C17.1139 10.8302 16.9576 10.7995 16.7999 10.7999Z" fill="#B0AAD0"/>
</svg>
