<svg width="20" height="20" viewBox="0 0 20 20" fill="none" xmlns="http://www.w3.org/2000/svg">
<path d="M9.99985 14C9.86851 14.0001 9.73844 13.9743 9.61712 13.924C9.49579 13.8738 9.38559 13.8 9.29285 13.707L4.29285 8.707C4.2 8.61416 4.12636 8.50393 4.07611 8.38263C4.02586 8.26132 4 8.1313 4 8C4 7.8687 4.02586 7.73868 4.07611 7.61738C4.12636 7.49607 4.2 7.38585 4.29285 7.293C4.38569 7.20016 4.49592 7.12651 4.61722 7.07626C4.73853 7.02601 4.86855 7.00015 4.99985 7.00015C5.13115 7.00015 5.26117 7.02601 5.38247 7.07626C5.50378 7.12651 5.614 7.20016 5.70685 7.293L9.99985 11.586L14.2928 7.293C14.3857 7.20016 14.4959 7.12651 14.6172 7.07626C14.7385 7.02601 14.8685 7.00015 14.9998 7.00015C15.1312 7.00015 15.2612 7.02601 15.3825 7.07626C15.5038 7.12651 15.614 7.20016 15.7068 7.293C15.7997 7.38585 15.8733 7.49607 15.9236 7.61738C15.9738 7.73868 15.9997 7.8687 15.9997 8C15.9997 8.1313 15.9738 8.26132 15.9236 8.38263C15.8733 8.50393 15.7997 8.61416 15.7068 8.707L10.7068 13.707C10.6141 13.8 10.5039 13.8738 10.3826 13.924C10.2613 13.9743 10.1312 14.0001 9.99985 14Z" fill="#B0AAD0"/>
</svg>
