<svg width="28" height="28" viewBox="0 0 28 28" fill="none" xmlns="http://www.w3.org/2000/svg">
<path fill-rule="evenodd" clip-rule="evenodd" d="M8.709 1.24375C10.0775 1.18075 10.5138 1.16675 13.9998 1.16675C17.4858 1.16675 17.9222 1.18191 19.2895 1.24375C20.6568 1.30558 21.5902 1.52375 22.4068 1.83991C23.262 2.16308 24.0378 2.66825 24.6795 3.32158C25.3328 3.96208 25.8368 4.73675 26.1588 5.59308C26.4762 6.40975 26.6932 7.34308 26.7562 8.70808C26.8192 10.0789 26.8332 10.5152 26.8332 14.0001C26.8332 17.4861 26.818 17.9224 26.7562 19.2909C26.6943 20.6559 26.4762 21.5892 26.1588 22.4059C25.8368 23.2624 25.332 24.0383 24.6795 24.6797C24.0378 25.3331 23.262 25.8371 22.4068 26.1591C21.5902 26.4764 20.6568 26.6934 19.2918 26.7564C17.9222 26.8194 17.4858 26.8334 13.9998 26.8334C10.5138 26.8334 10.0775 26.8182 8.709 26.7564C7.344 26.6946 6.41067 26.4764 5.594 26.1591C4.73758 25.837 3.96163 25.3322 3.32017 24.6797C2.66728 24.0389 2.16204 23.2633 1.83967 22.4071C1.5235 21.5904 1.3065 20.6571 1.2435 19.2921C1.1805 17.9212 1.1665 17.4849 1.1665 14.0001C1.1665 10.5141 1.18167 10.0777 1.2435 8.71041C1.30534 7.34308 1.5235 6.40975 1.83967 5.59308C2.16251 4.73684 2.66814 3.96128 3.32134 3.32041C3.96188 2.66767 4.73705 2.16243 5.59284 1.83991C6.4095 1.52375 7.34284 1.30675 8.70784 1.24375H8.709ZM19.1857 3.55375C17.8323 3.49191 17.4263 3.47908 13.9998 3.47908C10.5733 3.47908 10.1673 3.49191 8.814 3.55375C7.56217 3.61091 6.88317 3.81975 6.4305 3.99591C5.832 4.22925 5.40384 4.50575 4.95467 4.95491C4.52889 5.36914 4.20121 5.87341 3.99567 6.43075C3.8195 6.88341 3.61067 7.56241 3.5535 8.81425C3.49167 10.1676 3.47884 10.5736 3.47884 14.0001C3.47884 17.4266 3.49167 17.8326 3.5535 19.1859C3.61067 20.4377 3.8195 21.1167 3.99567 21.5694C4.201 22.1259 4.52884 22.6311 4.95467 23.0452C5.36884 23.4711 5.874 23.7989 6.4305 24.0042C6.88317 24.1804 7.56217 24.3892 8.814 24.4464C10.1673 24.5082 10.5722 24.5211 13.9998 24.5211C17.4275 24.5211 17.8323 24.5082 19.1857 24.4464C20.4375 24.3892 21.1165 24.1804 21.5692 24.0042C22.1677 23.7709 22.5958 23.4944 23.045 23.0452C23.4708 22.6311 23.7987 22.1259 24.004 21.5694C24.1802 21.1167 24.389 20.4377 24.4462 19.1859C24.508 17.8326 24.5208 17.4266 24.5208 14.0001C24.5208 10.5736 24.508 10.1676 24.4462 8.81425C24.389 7.56241 24.1802 6.88341 24.004 6.43075C23.7707 5.83225 23.4942 5.40408 23.045 4.95491C22.6308 4.52916 22.1265 4.20149 21.5692 3.99591C21.1165 3.81975 20.4375 3.61091 19.1857 3.55375ZM12.3607 17.9562C13.2761 18.3373 14.2954 18.3887 15.2446 18.1018C16.1937 17.8148 17.0138 17.2071 17.5647 16.3827C18.1156 15.5582 18.3632 14.5681 18.2652 13.5814C18.1672 12.5946 17.7297 11.6725 17.0273 10.9726C16.5796 10.5251 16.0383 10.1825 15.4422 9.96942C14.8462 9.75631 14.2103 9.678 13.5804 9.74013C12.9505 9.80226 12.3422 10.0033 11.7993 10.3287C11.2564 10.6542 10.7924 11.0959 10.4407 11.6222C10.089 12.1485 9.85839 12.7463 9.76544 13.3724C9.67249 13.9985 9.71951 14.6374 9.90313 15.2432C10.0868 15.8489 10.4024 16.4065 10.8273 16.8756C11.2523 17.3447 11.776 17.7138 12.3607 17.9562ZM9.3355 9.33575C9.94803 8.72322 10.6752 8.23733 11.4755 7.90584C12.2758 7.57434 13.1336 7.40372 13.9998 7.40372C14.8661 7.40372 15.7238 7.57434 16.5242 7.90584C17.3245 8.23733 18.0516 8.72322 18.6642 9.33575C19.2767 9.94828 19.7626 10.6755 20.0941 11.4758C20.4256 12.2761 20.5962 13.1338 20.5962 14.0001C20.5962 14.8663 20.4256 15.7241 20.0941 16.5244C19.7626 17.3247 19.2767 18.0519 18.6642 18.6644C17.4271 19.9015 15.7493 20.5964 13.9998 20.5964C12.2504 20.5964 10.5726 19.9015 9.3355 18.6644C8.09845 17.4274 7.40347 15.7495 7.40347 14.0001C7.40347 12.2506 8.09845 10.5728 9.3355 9.33575ZM22.0592 8.38608C22.211 8.2429 22.3325 8.07071 22.4165 7.87972C22.5006 7.68873 22.5454 7.48281 22.5485 7.27417C22.5515 7.06552 22.5127 6.85839 22.4342 6.66503C22.3558 6.47167 22.2393 6.29601 22.0918 6.14846C21.9442 6.00091 21.7686 5.88446 21.5752 5.80602C21.3819 5.72757 21.1747 5.68872 20.9661 5.69176C20.7574 5.6948 20.5515 5.73968 20.3605 5.82373C20.1695 5.90778 19.9974 6.02929 19.8542 6.18108C19.5757 6.47628 19.4232 6.86839 19.4292 7.27417C19.4351 7.67994 19.5989 8.06744 19.8859 8.3544C20.1728 8.64136 20.5603 8.80518 20.9661 8.8111C21.3719 8.81701 21.764 8.66455 22.0592 8.38608Z" fill="#F7F6FF"/>
</svg>
