<svg width="8" height="8" viewBox="0 0 8 8" fill="none" xmlns="http://www.w3.org/2000/svg">
<path d="M7.72816 1.03844L6.96429 0.274277C6.78933 0.0992679 6.55218 0.000661091 6.30471 3.31188e-06C6.05724 -0.000654467 5.81959 0.0966936 5.64369 0.27077L0.332953 5.17194C0.138012 5.34452 0.0187384 5.58683 0.000893178 5.84657C-0.00473693 5.97556 0.016297 6.10433 0.0626562 6.22483C0.109015 6.34534 0.179716 6.45499 0.270347 6.54695L1.41131 7.7005L1.41336 7.70254C1.58967 7.87828 1.82823 7.97731 2.07717 7.97812H2.1117C2.24062 7.97088 2.36685 7.93828 2.48316 7.88221C2.59948 7.82614 2.7036 7.74769 2.78956 7.65134L7.72494 2.36488C7.90126 2.19007 8.00091 1.95238 8.00198 1.70409C8.00305 1.45581 7.90545 1.21726 7.73065 1.04094L7.72816 1.03844Z" fill="white"/>
</svg>
