<svg width="81" height="35" viewBox="0 0 81 35" fill="none" xmlns="http://www.w3.org/2000/svg">
<path d="M79.1608 16.4624L65.6689 2.97049C63.7123 1.0139 60.54 1.0139 58.5834 2.97049L48.6343 12.9196C46.6777 14.8762 43.5054 14.8762 41.5488 12.9196L31.5997 2.97049C29.6431 1.0139 26.4708 1.0139 24.5142 2.97049L14.5651 12.9196C12.6085 14.8762 9.43625 14.8762 7.47966 12.9196L1.50305 6.94302" stroke="#FBA457" stroke-width="3" stroke-linecap="round"/>
<path d="M79.1608 33.4969L65.6689 20.0051C63.7123 18.0485 60.54 18.0485 58.5834 20.0051L48.6343 29.9542C46.6777 31.9108 43.5054 31.9108 41.5488 29.9542L31.5997 20.0051C29.6431 18.0485 26.4708 18.0485 24.5142 20.0051L14.5651 29.9542C12.6085 31.9108 9.43625 31.9108 7.47966 29.9542L1.50305 23.9776" stroke="#FBA457" stroke-width="3" stroke-linecap="round"/>
</svg>
