<svg width="17" height="24" viewBox="0 0 17 24" fill="none" xmlns="http://www.w3.org/2000/svg">
<path d="M11.328 0.528C11.1607 0.36052 10.9621 0.227677 10.7434 0.137075C10.5247 0.0464734 10.2903 -0.000107108 10.0536 1.8493e-07H1.8C1.32261 1.8493e-07 0.864773 0.189642 0.527208 0.527208C0.189642 0.864773 0 1.32261 0 1.8V22.2C0 22.6774 0.189642 23.1352 0.527208 23.4728C0.864773 23.8104 1.32261 24 1.8 24H15C15.4774 24 15.9352 23.8104 16.2728 23.4728C16.6104 23.1352 16.8 22.6774 16.8 22.2V6.7452C16.7996 6.26797 16.6097 5.81044 16.272 5.4732L11.328 0.5268V0.528Z" fill="#656084"/>
</svg>
