<svg width="15" height="15" viewBox="0 0 15 15" fill="none" xmlns="http://www.w3.org/2000/svg">
<path d="M8.29416 7.5L11.8285 3.96562C11.8822 3.91381 11.925 3.85183 11.9544 3.78331C11.9838 3.71479 11.9993 3.64109 12 3.56652C12.0006 3.49194 11.9864 3.41799 11.9582 3.34896C11.9299 3.27994 11.8882 3.21723 11.8355 3.1645C11.7828 3.11177 11.7201 3.07006 11.651 3.04182C11.582 3.01358 11.5081 2.99937 11.4335 3.00002C11.3589 3.00067 11.2852 3.01616 11.2167 3.0456C11.1482 3.07503 11.0862 3.11782 11.0344 3.17146L7.5 6.70585L3.96562 3.17146C3.85969 3.06915 3.71782 3.01254 3.57056 3.01382C3.4233 3.0151 3.28243 3.07417 3.1783 3.1783C3.07417 3.28243 3.0151 3.4233 3.01382 3.57056C3.01254 3.71782 3.06915 3.85969 3.17146 3.96562L6.70585 7.5L3.17146 11.0344C3.11782 11.0862 3.07503 11.1482 3.0456 11.2167C3.01616 11.2852 3.00067 11.3589 3.00002 11.4335C2.99937 11.5081 3.01358 11.582 3.04182 11.651C3.07006 11.7201 3.11177 11.7828 3.1645 11.8355C3.21723 11.8882 3.27994 11.9299 3.34896 11.9582C3.41799 11.9864 3.49194 12.0006 3.56652 12C3.64109 11.9993 3.71479 11.9838 3.78331 11.9544C3.85183 11.925 3.91381 11.8822 3.96562 11.8285L7.5 8.29416L11.0344 11.8285C11.1127 11.9076 11.2128 11.9616 11.3219 11.9836C11.4311 12.0055 11.5442 11.9945 11.6471 11.9519C11.7499 11.9093 11.8377 11.8371 11.8994 11.7444C11.961 11.6517 11.9936 11.5428 11.9931 11.4315C11.9931 11.3577 11.9786 11.2847 11.9503 11.2165C11.9221 11.1484 11.8807 11.0865 11.8285 11.0344L8.29416 7.5Z" fill="#FBA457"/>
</svg>
