<svg width="24" height="23" viewBox="0 0 24 23" fill="none" xmlns="http://www.w3.org/2000/svg">
<path d="M10.191 1.11664C10.9257 -0.372139 13.0487 -0.372136 13.7834 1.11665L15.9363 5.47888C16.2281 6.07008 16.7921 6.47984 17.4445 6.57465L22.2585 7.27416C23.9015 7.5129 24.5575 9.53195 23.3687 10.6908L19.8852 14.0863C19.4131 14.5465 19.1977 15.2095 19.3091 15.8593L20.1315 20.6539C20.4121 22.2902 18.6946 23.5381 17.2251 22.7655L12.9193 20.5018C12.3358 20.195 11.6386 20.195 11.0551 20.5018L6.74931 22.7655C5.27979 23.5381 3.56228 22.2902 3.84293 20.6539L4.66526 15.8593C4.77671 15.2095 4.56128 14.5465 4.08918 14.0863L0.605736 10.6908C-0.583128 9.53196 0.0728995 7.5129 1.71587 7.27416L6.52987 6.57465C7.1823 6.47984 7.7463 6.07008 8.03807 5.47888L10.191 1.11664Z" fill="#FBA457"/>
</svg>
