<svg width="29" height="27" viewBox="0 0 29 27" fill="none" xmlns="http://www.w3.org/2000/svg">
<path d="M13.2408 0.560388C13.6095 -0.186759 14.6749 -0.186757 15.0437 0.560391L18.6353 7.83783C18.7817 8.13452 19.0648 8.34017 19.3922 8.38774L27.4233 9.55473C28.2478 9.67454 28.5771 10.6878 27.9804 11.2694L22.169 16.9341C21.9321 17.165 21.824 17.4978 21.8799 17.8239L23.2518 25.8225C23.3927 26.6437 22.5307 27.27 21.7933 26.8822L14.61 23.1058C14.3171 22.9518 13.9673 22.9518 13.6744 23.1058L6.49116 26.8822C5.75368 27.27 4.89175 26.6437 5.0326 25.8225L6.40448 17.8239C6.46041 17.4978 6.3523 17.165 6.11537 16.9341L0.30399 11.2694C-0.292643 10.6878 0.0365883 9.67454 0.861114 9.55473L8.89225 8.38774C9.21967 8.34017 9.50271 8.13452 9.64913 7.83783L13.2408 0.560388Z" fill="#656084"/>
</svg>
