<svg width="20" height="20" viewBox="0 0 20 20" fill="none" xmlns="http://www.w3.org/2000/svg">
<path d="M11.428 13.999L13 10.46L14.573 13.998H11.428V13.999ZM17.914 16.593L13.914 7.59301C13.8355 7.41614 13.7073 7.26585 13.5451 7.16036C13.3829 7.05488 13.1935 6.99873 13 6.99873C12.8065 6.99873 12.6171 7.05488 12.4549 7.16036C12.2927 7.26585 12.1645 7.41614 12.086 7.59301L10.128 11.999H10C8.724 11.999 7.76 11.699 7.035 11.283L7.047 11.271C8.339 9.82801 8.824 7.73501 8.987 5.99901H10C10.2652 5.99901 10.5196 5.89366 10.7071 5.70612C10.8946 5.51858 11 5.26423 11 4.99901C11 4.7338 10.8946 4.47944 10.7071 4.29191C10.5196 4.10437 10.2652 3.99901 10 3.99901H9.058C9.043 3.36901 9 2.94801 8.994 2.88901C8.97981 2.75847 8.94 2.63201 8.87685 2.51687C8.8137 2.40174 8.72844 2.30021 8.62598 2.21808C8.52351 2.13596 8.40584 2.07487 8.27972 2.03831C8.1536 2.00174 8.0215 1.99043 7.891 2.00501C7.6276 2.03444 7.38658 2.16703 7.22072 2.37375C7.05485 2.58048 6.97765 2.8445 7.006 3.10801C7.006 3.12101 7.041 3.46701 7.056 3.99801H3C2.73478 3.99801 2.48043 4.10337 2.29289 4.29091C2.10536 4.47844 2 4.7328 2 4.99801C2 5.26323 2.10536 5.51758 2.29289 5.70512C2.48043 5.89266 2.73478 5.99801 3 5.99801H6.98C6.837 7.36801 6.465 8.92001 5.56 9.93301C5.30161 9.57261 5.10243 9.17324 4.97 8.75001C4.90476 8.49302 4.74009 8.27247 4.51224 8.13688C4.28438 8.00129 4.01199 7.96177 3.755 8.02702C3.49801 8.09226 3.27745 8.25692 3.14187 8.48478C3.00628 8.71263 2.96676 8.98502 3.032 9.24201C3.15 9.71601 3.405 10.312 3.81 10.921C3.556 10.971 3.288 10.999 3 10.999C2.73478 10.999 2.48043 11.1044 2.29289 11.2919C2.10536 11.4794 2 11.7338 2 11.999C2 12.2642 2.10536 12.5186 2.29289 12.7061C2.48043 12.8937 2.73478 12.999 3 12.999C3.857 12.999 4.629 12.839 5.322 12.532C6.284 13.266 7.575 13.835 9.254 13.967L8.087 16.593C7.99219 16.8332 7.99385 17.1007 8.09163 17.3397C8.18941 17.5786 8.37575 17.7706 8.61172 17.8754C8.84768 17.9802 9.11503 17.9898 9.35789 17.9021C9.60076 17.8145 9.80036 17.6364 9.915 17.405L10.54 15.999H15.462L16.087 17.405C16.1947 17.6474 16.3942 17.8371 16.6418 17.9324C16.8893 18.0277 17.1646 18.0207 17.407 17.913C17.6494 17.8053 17.8391 17.6058 17.9344 17.3582C18.0296 17.1107 18.0227 16.8354 17.915 16.593H17.914Z" fill="#656084"/>
</svg>
