<svg width="20" height="20" viewBox="0 0 20 20" fill="none" xmlns="http://www.w3.org/2000/svg">
<g clip-path="url(#clip0_208_1377)">
<path fill-rule="evenodd" clip-rule="evenodd" d="M9.02809 0C8.78731 2.31057e-06 8.5546 0.0868852 8.37274 0.244689C8.19087 0.402492 8.07204 0.620619 8.03809 0.859L7.66809 3.457C6.97117 3.72296 6.32129 4.0987 5.74309 4.57L3.30609 3.59C3.08265 3.5002 2.8343 3.49405 2.60668 3.57268C2.37907 3.6513 2.18747 3.80943 2.06709 4.018L0.935093 5.981C0.814565 6.18944 0.773289 6.43437 0.818848 6.67079C0.864407 6.90722 0.99374 7.11927 1.18309 7.268L3.24909 8.889C3.13181 9.62502 3.13181 10.375 3.24909 11.111L1.18309 12.732C0.99374 12.8807 0.864407 13.0928 0.818848 13.3292C0.773289 13.5656 0.814565 13.8106 0.935093 14.019L2.06709 15.981C2.18747 16.1896 2.37907 16.3477 2.60668 16.4263C2.8343 16.505 3.08265 16.4988 3.30609 16.409L5.74409 15.43C6.3217 15.9011 6.97089 16.2768 7.66709 16.543L8.03909 19.141C8.07304 19.3794 8.19187 19.5975 8.37374 19.7553C8.5556 19.9131 8.78831 20 9.02909 20H11.2941C11.5349 20 11.7676 19.9131 11.9494 19.7553C12.1313 19.5975 12.2501 19.3794 12.2841 19.141L12.6551 16.543C13.3516 16.2772 14.0011 15.9018 14.5791 15.431L17.0171 16.409C17.2404 16.4985 17.4885 16.5045 17.7159 16.4259C17.9433 16.3473 18.1347 16.1893 18.2551 15.981L19.3881 14.019C19.5085 13.8104 19.5496 13.5654 19.5039 13.329C19.4581 13.0926 19.3286 12.8806 19.1391 12.732L17.0741 11.111C17.1913 10.375 17.1913 9.62503 17.0741 8.889L19.1391 7.268C19.3286 7.11941 19.4581 6.90743 19.5039 6.67099C19.5496 6.43455 19.5085 6.18955 19.3881 5.981L18.2551 4.019C18.1347 3.81043 17.9431 3.6523 17.7155 3.57368C17.4879 3.49505 17.2395 3.5012 17.0161 3.591L14.5791 4.57C14.0012 4.09881 13.3517 3.72307 12.6551 3.457L12.2841 0.86C12.2501 0.621619 12.1313 0.403492 11.9494 0.245689C11.7676 0.0878852 11.5349 0.00100231 11.2941 0.001H9.02809V0ZM10.1611 13C10.9567 13 11.7198 12.6839 12.2824 12.1213C12.845 11.5587 13.1611 10.7956 13.1611 10C13.1611 9.20435 12.845 8.44129 12.2824 7.87868C11.7198 7.31607 10.9567 7 10.1611 7C9.36544 7 8.60238 7.31607 8.03977 7.87868C7.47716 8.44129 7.16109 9.20435 7.16109 10C7.16109 10.7956 7.47716 11.5587 8.03977 12.1213C8.60238 12.6839 9.36544 13 10.1611 13Z" fill="#656084"/>
</g>
<defs>
<clipPath id="clip0_208_1377">
<rect width="20" height="20" fill="white"/>
</clipPath>
</defs>
</svg>
