<svg width="84" height="92" viewBox="0 0 84 92" fill="none" xmlns="http://www.w3.org/2000/svg">
<g filter="url(#filter0_f_181_2314)">
<rect x="20.1187" y="45.1348" width="43.4631" height="26.7465" fill="#FBA457" fill-opacity="0.5"/>
</g>
<rect x="20.1187" y="45.1348" width="43.4631" height="26.7465" fill="#FBA457"/>
<path d="M79.4798 75.4346H74.7812L75.2143 74.9187C77.4327 72.2769 78.1224 68.7401 77.0595 65.4583L72.8145 52.352C71.7495 49.0638 69.1134 46.5949 65.7627 45.7473L63.6532 45.2138C62.8244 44.0502 61.5217 43.2463 60.0285 43.0888L60.0298 37.8688C60.0299 37.1929 59.4822 36.6451 58.8066 36.6449C58.1309 36.6449 57.5829 37.1924 57.5827 37.8681L57.5814 43.0599H55.1382L52.1118 42.2944C51.3458 42.1005 50.7756 41.4704 50.6594 40.6889L49.9641 36.0192C52.7687 33.8114 54.8463 30.8374 55.4737 27.284H56.4831C56.8678 27.284 57.2382 27.2216 57.5855 27.108L57.5842 32.1381C57.584 32.814 58.1317 33.3618 58.8074 33.362C59.4831 33.362 60.0311 32.8145 60.0313 32.1388C60.0319 31.163 60.0353 19.7314 60.0353 15.9643C60.043 7.14373 52.9071 0 44.0849 0H39.6184L39.566 0.000163248C39.5564 0.000163248 39.5469 0.000979487 39.5371 0.000979487C30.7451 0.0445667 23.6603 7.17768 23.6678 15.9637C23.6678 20.0728 23.6653 15.8507 23.6748 43.0886C22.1816 43.2463 20.8789 44.05 20.0501 45.2136L17.9406 45.7471C14.5899 46.5947 11.9538 49.0637 10.8887 52.3518L6.64381 65.4582C5.5809 68.7401 6.27062 72.2767 8.48884 74.9184L8.9221 75.4344H4.2235C1.97704 75.4344 0.149319 77.2621 0.149319 79.5086C0.149319 81.7552 1.97688 83.5829 4.2235 83.5829H79.4799C81.7264 83.5829 83.5541 81.7552 83.5541 79.5087C83.554 77.2623 81.7264 75.4346 79.4798 75.4346ZM70.4865 53.1057L74.7314 66.212C75.5329 68.6866 75.0128 71.353 73.3402 73.345L71.5859 75.4346H69.3316C69.5806 74.7659 69.7122 74.0528 69.7122 73.3218C69.7122 71.9228 68.574 70.7846 67.175 70.7846H64.5999V48.1715C64.5999 48.1061 64.5975 48.0411 64.595 47.9761C64.757 48.0605 69.0208 48.5805 70.4865 53.1057ZM67.1751 73.2317C67.2248 73.2317 67.2651 73.272 67.2651 73.3217C67.2651 74.0886 67.0212 74.8217 66.5768 75.4344H17.1264C16.6821 74.8216 16.4382 74.0884 16.4382 73.3217C16.4382 73.2719 16.4785 73.2317 16.5281 73.2317H67.1751ZM57.5863 23.771C57.5652 24.3621 57.0791 24.8367 56.4831 24.8367H55.666L55.6784 19.8771H56.4849C57.0848 19.8771 57.5736 20.3586 57.5871 20.9553L57.5863 23.771ZM36.2137 5.86615C36.2137 3.99517 37.7081 2.46798 39.5578 2.44872C39.5781 2.44872 39.5982 2.44725 39.6184 2.44725H44.0849C51.552 2.44725 57.5948 8.49313 57.5883 15.963L57.5879 17.43C55.9055 17.43 52.7117 17.43 47.7047 17.43C41.3686 17.43 36.2139 12.2751 36.2139 5.93896L36.2137 5.86615ZM36.592 14.3402C39.1391 17.7011 43.172 19.8771 47.7046 19.8771H53.231L53.2179 25.0948C53.2179 29.2473 50.7864 32.4029 48.0449 34.4182C48.027 34.4283 44.7591 36.9151 41.8515 36.9961C39.1656 36.9211 35.7994 34.4985 35.6608 34.4197C32.9182 32.4037 30.485 29.2462 30.485 25.0891C30.4573 18.9665 30.4842 24.8942 30.4553 18.5205C30.4525 17.8946 30.9581 17.3864 31.5843 17.3864C33.7599 17.3866 35.6507 16.1483 36.592 14.3402ZM49.0842 43.0599H34.6191C35.0555 42.4838 35.3532 41.798 35.4647 41.0493L35.9881 37.534C38.2078 38.7999 40.368 39.4123 41.8255 39.4435C41.8343 39.4436 41.843 39.4438 41.8518 39.4438C41.8606 39.4438 41.8693 39.4436 41.8781 39.4435C43.3356 39.4123 45.4958 38.8001 47.7155 37.534L48.2389 41.0493C48.3501 41.798 48.6478 42.4838 49.0842 43.0599ZM27.2204 27.284H28.2301C28.8569 30.8338 30.931 33.8083 33.7394 36.0192L33.0441 40.6889C32.9279 41.4704 32.3576 42.1005 31.5918 42.2943L28.5651 43.0597H26.1219L26.1178 27.108C26.4652 27.2218 26.8354 27.284 27.2204 27.284ZM26.117 23.771L26.1163 20.9553C26.1299 20.3586 26.6187 19.8771 27.2186 19.8771H28.0144L28.037 24.8367H27.2204C26.6242 24.8369 26.1381 24.3621 26.117 23.771ZM34.2358 3.56223C33.9343 4.27024 33.7666 5.04893 33.7666 5.86599C33.7831 6.03364 33.6512 8.3565 34.7802 11.1477V11.7436C34.7802 13.5057 33.3466 14.9393 31.5845 14.9393C29.9755 14.9393 28.6338 15.9934 28.1777 17.4298H27.2186C26.8335 17.4298 26.4629 17.4922 26.1155 17.6061L26.115 15.9622C26.1101 10.3573 29.4957 5.62307 34.2358 3.56223ZM8.97205 66.2122L13.217 53.1058C14.682 48.5826 18.9434 48.0621 19.1084 47.9763C19.106 48.0412 19.1035 48.1061 19.1035 48.1717L19.1034 61.1435C19.1034 61.8194 19.6512 61.1435 20.3269 61.1435C21.0028 61.1435 21.5505 61.8194 21.5505 61.1435L21.5506 48.1717C21.5506 46.7024 22.7459 45.5071 24.2152 45.5071H59.4885C60.9577 45.5071 62.153 46.7024 62.153 48.1717V70.7846H21.5505V61.1435C21.5505 60.4677 21.0026 59.92 20.3269 59.92C19.6511 59.92 19.1034 60.4677 19.1034 61.1435V70.7846H16.5283C15.1293 70.7846 13.9911 71.9228 13.9911 73.3218C13.9911 74.0528 14.1228 74.7661 14.3716 75.4346H12.1175L10.3631 73.3448C8.69061 71.3532 8.1705 68.6866 8.97205 66.2122ZM79.4798 81.1357H4.2235C3.32629 81.1357 2.59657 80.4058 2.59657 79.5087C2.59657 78.6115 3.32645 77.8818 4.2235 77.8818H79.4799C80.3772 77.8818 81.1069 78.6117 81.1069 79.5087C81.1069 80.4058 80.377 81.1357 79.4798 81.1357Z" fill="#222222"/>
<ellipse cx="41.8518" cy="58.1738" rx="3.34332" ry="3.34332" fill="#F6FAFD"/>
<path d="M41.8519 63.8837C44.9414 63.8837 47.4547 61.3701 47.4547 58.2808C47.4547 55.1915 44.9414 52.6778 41.8519 52.6778C38.7625 52.6778 36.2491 55.1914 36.2491 58.2807C36.2491 61.37 38.7625 63.8837 41.8519 63.8837ZM41.8519 55.1251C43.592 55.1251 45.0076 56.5406 45.0076 58.2808C45.0076 60.0211 43.592 61.4366 41.8519 61.4366C40.1119 61.4366 38.6962 60.0211 38.6962 58.2808C38.6962 56.5406 40.1119 55.1251 41.8519 55.1251Z" fill="#222222"/>
<defs>
<filter id="filter0_f_181_2314" x="0" y="25.016" width="83.701" height="66.984" filterUnits="userSpaceOnUse" color-interpolation-filters="sRGB">
<feFlood flood-opacity="0" result="BackgroundImageFix"/>
<feBlend mode="normal" in="SourceGraphic" in2="BackgroundImageFix" result="shape"/>
<feGaussianBlur stdDeviation="10" result="effect1_foregroundBlur_181_2314"/>
</filter>
</defs>
</svg>
