<svg width="29" height="27" viewBox="0 0 29 27" fill="none" xmlns="http://www.w3.org/2000/svg">
<path d="M13.2408 0.56036C13.6096 -0.18679 14.675 -0.186788 15.0437 0.560362L18.6353 7.83783C18.7818 8.13452 19.0648 8.34016 19.3922 8.38774L27.4234 9.55474C28.2479 9.67455 28.5772 10.6878 27.9805 11.2694L22.1691 16.9341C21.9322 17.165 21.8241 17.4978 21.88 17.8239L23.2519 25.8226C23.3927 26.6438 22.5308 27.27 21.7933 26.8823L14.61 23.1058C14.3172 22.9519 13.9673 22.9519 13.6745 23.1058L6.49118 26.8823C5.7537 27.27 4.89177 26.6438 5.03261 25.8226L6.4045 17.8239C6.46043 17.4978 6.35232 17.165 6.11539 16.9341L0.303991 11.2694C-0.292644 10.6878 0.0365884 9.67455 0.861117 9.55473L8.89228 8.38774C9.2197 8.34016 9.50274 8.13452 9.64917 7.83783L13.2408 0.56036Z" fill="#656084"/>
</svg>
