<svg width="20" height="20" viewBox="0 0 20 20" fill="none" xmlns="http://www.w3.org/2000/svg">
<path d="M11.4146 10L17.7076 3.707C17.8031 3.61476 17.8793 3.50441 17.9317 3.38241C17.9841 3.26041 18.0117 3.12919 18.0128 2.99641C18.014 2.86363 17.9887 2.73195 17.9384 2.60905C17.8881 2.48615 17.8139 2.3745 17.72 2.28061C17.6261 2.18672 17.5144 2.11246 17.3915 2.06218C17.2686 2.0119 17.1369 1.9866 17.0042 1.98775C16.8714 1.98891 16.7402 2.01649 16.6182 2.0689C16.4962 2.12131 16.3858 2.19749 16.2936 2.293L10.0006 8.58601L3.70757 2.293C3.51897 2.11085 3.26636 2.01005 3.00417 2.01233C2.74197 2.01461 2.49116 2.11978 2.30575 2.30519C2.12034 2.49059 2.01517 2.74141 2.0129 3.0036C2.01062 3.2658 2.11141 3.5184 2.29357 3.707L8.58657 10L2.29357 16.293C2.19806 16.3853 2.12188 16.4956 2.06947 16.6176C2.01706 16.7396 1.98947 16.8708 1.98832 17.0036C1.98717 17.1364 2.01247 17.2681 2.06275 17.391C2.11303 17.5139 2.18728 17.6255 2.28117 17.7194C2.37507 17.8133 2.48672 17.8875 2.60962 17.9378C2.73251 17.9881 2.86419 18.0134 2.99697 18.0123C3.12975 18.0111 3.26097 17.9835 3.38297 17.9311C3.50498 17.8787 3.61532 17.8025 3.70757 17.707L10.0006 11.414L16.2936 17.707C16.433 17.8478 16.6113 17.9439 16.8056 17.983C16.9998 18.0221 17.2014 18.0025 17.3845 17.9267C17.5676 17.8509 17.7239 17.7222 17.8337 17.5572C17.9434 17.3922 18.0015 17.1982 18.0006 17C18.0006 16.8687 17.9747 16.7386 17.9245 16.6173C17.8742 16.496 17.8005 16.3858 17.7076 16.293L11.4146 10Z" fill="#656084"/>
</svg>
