<svg width="12" height="12" viewBox="0 0 12 12" fill="none" xmlns="http://www.w3.org/2000/svg">
<path d="M11.931 0.483691V0.481283C11.9084 0.381991 11.8584 0.291 11.7868 0.218586C11.7152 0.146172 11.6248 0.0952155 11.5257 0.0714579C10.7275 -0.123274 9.47183 0.0843109 8.0803 0.641453C6.74216 1.16164 5.51786 1.9369 4.47547 2.92413C4.19078 3.20731 3.92628 3.51011 3.68394 3.8303C3.1486 3.79331 2.6119 3.87954 2.11508 4.08235C0.56847 4.76298 0.126786 6.50486 0.00919649 7.22004C-0.0078182 7.32166 -0.00116292 7.42581 0.0286594 7.52444C0.0584817 7.62306 0.110668 7.71347 0.181139 7.78863C0.251611 7.86379 0.338465 7.92168 0.434963 7.95779C0.531461 7.9939 0.635004 8.00726 0.737506 7.99682H0.740974L2.46384 7.80878C2.46598 7.83074 2.46839 7.85084 2.47027 7.86932C2.49239 8.07926 2.58601 8.27521 2.73544 8.42432L3.57625 9.26566C3.72515 9.41529 3.92106 9.50904 4.13099 9.53111L4.18857 9.53726L4.00108 11.258V11.2615C3.99203 11.3489 4.00031 11.4373 4.02543 11.5216C4.05054 11.6059 4.09202 11.6844 4.14748 11.7526C4.20293 11.8209 4.27129 11.8775 4.34864 11.9194C4.42599 11.9612 4.51082 11.9874 4.59829 11.9964C4.61889 11.9986 4.63956 11.9997 4.66029 12C4.69753 12 4.73471 11.9969 4.77145 11.9908C5.49064 11.8751 7.23173 11.4388 7.91048 9.88388C8.11166 9.38875 8.19819 8.85451 8.1636 8.32119C8.48522 8.07939 8.78913 7.81487 9.07298 7.52968C10.0596 6.49715 10.8357 5.2824 11.3581 3.95324C11.9123 2.57753 12.1209 1.31245 11.931 0.483691ZM9.06334 5.16799C8.8433 5.38826 8.56288 5.53832 8.25755 5.59922C7.95222 5.66012 7.63567 5.6291 7.34796 5.51011C7.06025 5.39111 6.81429 5.18947 6.64118 4.93068C6.46807 4.6719 6.37561 4.36759 6.37545 4.05624C6.37529 3.74489 6.46745 3.44049 6.64029 3.18153C6.81313 2.92256 7.05889 2.72067 7.34647 2.60137C7.63406 2.48208 7.95056 2.45074 8.25596 2.51132C8.56135 2.5719 8.84192 2.72169 9.06219 2.94173L9.06334 2.94288C9.35841 3.23351 9.52594 3.62945 9.52907 4.04361C9.5322 4.45776 9.37067 4.85619 9.08004 5.15126L9.06334 5.16799Z" fill="white"/>
</svg>
