<svg width="3" height="15" viewBox="0 0 3 15" fill="none" xmlns="http://www.w3.org/2000/svg">
<path d="M1.74999 15.0001H0.750003C0.551088 15.0001 0.360325 14.921 0.219671 14.7804C0.0790177 14.6397 0 14.449 0 14.25V0.750003C0 0.551089 0.0790177 0.360325 0.219671 0.219671C0.360325 0.0790177 0.551088 0 0.750003 0H1.75C1.94892 0 2.13969 0.0790177 2.28034 0.219671C2.421 0.360325 2.50001 0.551089 2.50001 0.750003V14.25C2.50001 14.3485 2.48061 14.4461 2.44292 14.5371C2.40523 14.6281 2.34998 14.7107 2.28033 14.7804C2.21069 14.85 2.12801 14.9053 2.03701 14.943C1.94602 14.9807 1.84849 15.0001 1.74999 15.0001Z" fill="white"/>
</svg>
