<svg width="20" height="20" viewBox="0 0 20 20" fill="none" xmlns="http://www.w3.org/2000/svg">
<g clip-path="url(#clip0_216_942)">
<path fill-rule="evenodd" clip-rule="evenodd" d="M0 5.99997H20C20 5.39597 19.632 4.85297 19.072 4.62897L10.557 1.22297C10.1994 1.07997 9.80057 1.07997 9.443 1.22297L0.928 4.62897C0.368 4.85297 0 5.39597 0 5.99997ZM0 7.99997V8.99997C0 9.26519 0.105357 9.51954 0.292893 9.70708C0.48043 9.89462 0.734784 9.99997 1 9.99997V17C0.734784 17 0.48043 17.1053 0.292893 17.2929C0.105357 17.4804 0 17.7348 0 18C0 18.2652 0.105357 18.5195 0.292893 18.7071C0.48043 18.8946 0.734784 19 1 19H19C19.2652 19 19.5196 18.8946 19.7071 18.7071C19.8946 18.5195 20 18.2652 20 18C20 17.7348 19.8946 17.4804 19.7071 17.2929C19.5196 17.1053 19.2652 17 19 17V9.99997C19.2652 9.99997 19.5196 9.89462 19.7071 9.70708C19.8946 9.51954 20 9.26519 20 8.99997V7.99997H0ZM4 9.99997H6V17H4V9.99997ZM11 9.99997H9V17H11V9.99997ZM14 9.99997H16V17H14V9.99997Z" fill="#656084"/>
</g>
<defs>
<clipPath id="clip0_216_942">
<rect width="20" height="20" fill="white"/>
</clipPath>
</defs>
</svg>
