<svg width="102" height="90" viewBox="0 0 102 90" fill="none" xmlns="http://www.w3.org/2000/svg">
<path d="M69.1649 67.089L65.6417 65.0036C64.5678 64.369 63.3391 64.034 62.0875 64.0333H56.7851C55.6997 64.0313 54.6189 64.1695 53.5693 64.4431L37.5934 68.6799C35.8466 69.1564 34.4437 70.4416 33.8317 72.1266L19.7795 64.6159C18.64 63.9753 17.306 63.7577 16.0186 64.002C15.5329 64.0867 15.0621 64.2395 14.6197 64.4558C13.6207 64.9282 12.7919 65.6916 12.2434 66.6426C11.7639 67.4707 11.5119 68.4083 11.5119 69.3619C11.497 71.3091 12.5413 73.1136 14.2462 74.0892L39.4313 88.9764C40.5255 89.6457 41.7859 90.0001 43.0727 90.0001H62.5637C63.4343 90.0008 64.2969 89.8379 65.1061 89.5216L69.1649 87.9381V90.0001H82.9983V62.6667H69.1649V67.089ZM64.0895 86.9798C63.6052 87.1687 63.0885 87.2661 62.5677 87.2668H43.0727C42.2932 87.2661 41.5292 87.0492 40.8686 86.6408L15.6491 71.7362C14.7919 71.2471 14.2671 70.3409 14.2739 69.3632C14.2759 68.8841 14.4035 68.413 14.6447 67.9966C14.9203 67.5248 15.335 67.1464 15.8328 66.9128C16.0523 66.8074 16.2847 66.7327 16.5245 66.6913C16.6994 66.6592 16.8771 66.6426 17.0547 66.6426C17.5302 66.6412 17.9977 66.764 18.4104 66.9976L33.648 75.1322C33.6656 75.2156 33.6656 75.2977 33.6879 75.3811C34.343 77.7668 36.5336 79.4237 39.0361 79.4264C39.8061 79.357 40.5687 79.2222 41.3158 79.0247L55.6882 75.225L54.9749 72.5844L40.6491 76.3674C40.0182 76.5109 39.2043 76.6751 39.0361 76.6891C37.7865 76.6911 36.6909 75.8663 36.362 74.6758C36.3174 74.5103 36.2911 74.3408 36.2816 74.1699C36.2816 74.1699 36.2708 73.8389 36.2816 73.7228C36.387 72.5797 37.1975 71.6201 38.3168 71.3125L54.2859 67.0917C55.1012 66.8761 55.9415 66.7667 56.7851 66.7667H62.0875C62.8386 66.7667 63.5755 66.9682 64.2192 67.3493L69.1649 70.2748V84.9979L64.0895 86.9798ZM71.9316 65.4H80.2316V87.2668H71.9316V65.4Z" fill="#222222"/>
<g filter="url(#filter0_f_181_2325)">
<path d="M27.3304 28.0001L26.8243 52.5001V53.0001H81.483V20.0001H42.0073L49.0926 28.5001L44.0317 33.5001L34.4158 26.0001L27.3304 28.0001Z" fill="#1DBF73" fill-opacity="0.5"/>
</g>
<path d="M27.3304 28.0001L26.8243 52.5001V53.0001H81.483V20.0001H42.0073L49.0926 28.5001L44.0317 33.5001L34.4158 26.0001L27.3304 28.0001Z" fill="#1DBF73"/>
<path d="M57.0545 18.9334L49.634 11.6029C47.3043 9.288 44.1344 7.99073 40.8307 8.00007H23.4391C22.3658 8.00141 21.3073 8.24898 20.3461 8.72144L17.2458 10.2536C16.6244 10.5626 15.934 10.7101 15.239 10.6827L13.8334 10.634V8.00007H0V38.0668H13.8334V33.9668H16.1853L17.0222 34.5133C19.364 36.0495 22.0908 36.917 24.9001 37.0185V54.4669H83.0002V18.9334H57.0545ZM11.0667 35.3335H2.76667V10.7334H11.0667V35.3335ZM18.5535 32.2391L17.0148 31.2335H13.8334V13.3687L15.1377 13.4147C16.2961 13.4554 17.4457 13.2092 18.4825 12.6987L21.5802 11.1665C22.157 10.8816 22.794 10.7334 23.4391 10.7334H40.8307C43.4002 10.7261 45.8663 11.7351 47.6778 13.5348L53.1423 18.9334H41.7271L38.3694 15.6169L36.4139 17.5487L46.1858 27.2035C47.2712 28.2712 47.2746 30.0063 46.1939 31.0793C45.1125 32.1517 43.3563 32.155 42.2708 31.0873L34.1093 23.0241L33.1407 23.8442C30.4665 26.0878 26.5576 26.1452 23.8166 23.9804L23.0149 23.3384L21.2715 25.4618L22.0821 26.1111C22.9298 26.7804 23.8815 27.3103 24.9001 27.68V34.2838C22.6359 34.1844 20.4414 33.4777 18.5535 32.2391ZM38.2316 30.9599L40.3187 33.0225C42.4856 35.1313 45.9642 35.1346 48.1345 33.0292C46.104 36.1356 46.9051 40.2696 49.9535 42.4151C53.0018 44.5605 57.2187 43.9579 59.5267 41.0477C61.8348 38.1369 61.418 33.9475 58.5797 31.5371C55.7421 29.1267 51.4868 29.3476 48.9207 32.0383C49.8657 30.5722 50.0345 28.745 49.3739 27.1335H67.8983C68.4934 30.5722 71.2196 33.2655 74.7002 33.8534V39.5469C71.2196 40.1348 68.4934 42.8281 67.8983 46.2668H40.0019C39.4069 42.8281 36.6807 40.1348 33.2001 39.5469V33.8534C35.1772 33.5244 36.9651 32.496 38.2316 30.9599ZM49.8001 36.7001C49.8001 34.4359 51.6583 32.6001 53.9501 32.6001C56.242 32.6001 58.1002 34.4359 58.1002 36.7001C58.1002 38.9644 56.242 40.8002 53.9501 40.8002C51.6583 40.8002 49.8001 38.9644 49.8001 36.7001ZM80.2335 51.7335H27.6667V28.2526C29.86 28.4154 32.0464 27.8628 33.8918 26.681L36.2518 29.0126C35.2136 30.406 33.5682 31.2301 31.8168 31.2335H30.4334V42.1668H31.8168C34.8725 42.1668 37.3501 44.6146 37.3501 47.6335V49.0002H70.5502V47.6335C70.5502 44.6146 73.0278 42.1668 76.0835 42.1668H77.4669V31.2335H76.0835C73.0278 31.2335 70.5502 28.7857 70.5502 25.7668V24.4001H47.2604L44.4937 21.6668H80.2335V51.7335Z" fill="#222222"/>
<defs>
<filter id="filter0_f_181_2325" x="6.82424" y="0" width="94.6604" height="73.0002" filterUnits="userSpaceOnUse" color-interpolation-filters="sRGB">
<feFlood flood-opacity="0" result="BackgroundImageFix"/>
<feBlend mode="normal" in="SourceGraphic" in2="BackgroundImageFix" result="shape"/>
<feGaussianBlur stdDeviation="10" result="effect1_foregroundBlur_181_2325"/>
</filter>
</defs>
</svg>
