<svg width="607" height="32" viewBox="0 0 607 32" fill="none" xmlns="http://www.w3.org/2000/svg">
<g clip-path="url(#clip0_599_3018)">
<path d="M22.6323 15.1562C23.3462 14.2843 23.7865 13.2209 23.898 12.0995C24.2439 8.52297 21.4375 5.5 17.9416 5.5H8.59375C8.39484 5.5 8.20407 5.57902 8.06342 5.71967C7.92277 5.86032 7.84375 6.05109 7.84375 6.25V8.5C7.84375 8.69891 7.92277 8.88968 8.06342 9.03033C8.20407 9.17098 8.39484 9.25 8.59375 9.25H10.0877V22.75H8.59375C8.39484 22.75 8.20407 22.829 8.06342 22.9697C7.92277 23.1103 7.84375 23.3011 7.84375 23.5V25.75C7.84375 25.9489 7.92277 26.1397 8.06342 26.2803C8.20407 26.421 8.39484 26.5 8.59375 26.5H18.4056C21.7244 26.5 24.6934 24.0742 25.015 20.7625C25.2372 18.4914 24.2467 16.4472 22.6323 15.1562ZM13.8278 9.25H17.9416C18.5383 9.25 19.1106 9.48705 19.5326 9.90901C19.9545 10.331 20.1916 10.9033 20.1916 11.5C20.1916 12.0967 19.9545 12.669 19.5326 13.091C19.1106 13.5129 18.5383 13.75 17.9416 13.75H13.8278V9.25ZM17.9416 22.75H13.8278V17.5H17.9416C18.6378 17.5 19.3054 17.7766 19.7977 18.2688C20.29 18.7611 20.5666 19.4288 20.5666 20.125C20.5666 20.8212 20.29 21.4889 19.7977 21.9812C19.3054 22.4734 18.6378 22.75 17.9416 22.75Z" fill="black"/>
</g>
<path d="M80 6.25V7.75C80 7.94891 79.921 8.13968 79.7803 8.28033C79.6397 8.42098 79.4489 8.5 79.25 8.5H76.3081L72.5581 23.5H74.75C74.9489 23.5 75.1397 23.579 75.2803 23.7197C75.421 23.8603 75.5 24.0511 75.5 24.25V25.75C75.5 25.9489 75.421 26.1397 75.2803 26.2803C75.1397 26.421 74.9489 26.5 74.75 26.5H65.75C65.5511 26.5 65.3603 26.421 65.2197 26.2803C65.079 26.1397 65 25.9489 65 25.75V24.25C65 24.0511 65.079 23.8603 65.2197 23.7197C65.3603 23.579 65.5511 23.5 65.75 23.5H68.6919L72.4419 8.5H70.25C70.0511 8.5 69.8603 8.42098 69.7197 8.28033C69.579 8.13968 69.5 7.94891 69.5 7.75V6.25C69.5 6.05109 69.579 5.86032 69.7197 5.71967C69.8603 5.57902 70.0511 5.5 70.25 5.5H79.25C79.4489 5.5 79.6397 5.57902 79.7803 5.71967C79.921 5.86032 80 6.05109 80 6.25Z" fill="black"/>
<g clip-path="url(#clip1_599_3018)">
<path d="M127.625 4.375C121.203 4.375 116 9.57812 116 16C116 22.4219 121.203 27.625 127.625 27.625C134.047 27.625 139.25 22.4219 139.25 16C139.25 9.57812 134.047 4.375 127.625 4.375ZM127.625 25.375C122.455 25.375 118.25 21.1703 118.25 16C118.25 10.8297 122.455 6.625 127.625 6.625C132.795 6.625 137 10.8297 137 16C137 21.1703 132.795 25.375 127.625 25.375ZM131.562 18.6531C130.587 19.825 129.148 20.5 127.625 20.5C126.102 20.5 124.663 19.8297 123.688 18.6531C123.289 18.175 122.581 18.1141 122.103 18.5078C121.625 18.9062 121.564 19.6141 121.958 20.0922C123.364 21.7797 125.431 22.7453 127.625 22.7453C129.819 22.7453 131.886 21.7797 133.292 20.0922C133.691 19.6141 133.625 18.9062 133.147 18.5078C132.669 18.1141 131.961 18.175 131.562 18.6531ZM122.398 13.8906C122.759 13.2484 123.298 12.8781 123.875 12.8781C124.452 12.8781 124.991 13.2484 125.352 13.8906L125.797 14.6875C125.895 14.8609 126.088 14.9078 126.233 14.8609C126.402 14.8094 126.514 14.65 126.5 14.4719C126.345 12.4984 124.991 11.125 123.875 11.125C122.759 11.125 121.405 12.4984 121.25 14.4719C121.236 14.6453 121.348 14.8094 121.517 14.8609C121.677 14.9125 121.864 14.8375 121.953 14.6875L122.398 13.8906ZM131.375 11.125C130.259 11.125 128.905 12.4984 128.75 14.4719C128.736 14.6453 128.848 14.8094 129.017 14.8609C129.181 14.9125 129.364 14.8375 129.453 14.6875L129.898 13.8906C130.259 13.2484 130.798 12.8781 131.375 12.8781C131.952 12.8781 132.491 13.2484 132.852 13.8906L133.297 14.6875C133.395 14.8609 133.587 14.9078 133.733 14.8609C133.902 14.8094 134.014 14.65 134 14.4719C133.845 12.4984 132.491 11.125 131.375 11.125Z" fill="black"/>
</g>
<g clip-path="url(#clip2_599_3018)">
<path d="M195 6.25V7.75C195 7.94891 194.921 8.13968 194.78 8.28033C194.64 8.42098 194.449 8.5 194.25 8.5H192V25.75C192 25.9489 191.921 26.1397 191.78 26.2803C191.64 26.421 191.449 26.5 191.25 26.5H189.75C189.551 26.5 189.36 26.421 189.22 26.2803C189.079 26.1397 189 25.9489 189 25.75V8.5H187.5V25.75C187.5 25.9489 187.421 26.1397 187.28 26.2803C187.14 26.421 186.949 26.5 186.75 26.5H185.25C185.051 26.5 184.86 26.421 184.72 26.2803C184.579 26.1397 184.5 25.9489 184.5 25.75V20.5H183C181.011 20.5 179.103 19.7098 177.697 18.3033C176.29 16.8968 175.5 14.9891 175.5 13C175.5 11.0109 176.29 9.10322 177.697 7.6967C179.103 6.29018 181.011 5.5 183 5.5H194.25C194.449 5.5 194.64 5.57902 194.78 5.71967C194.921 5.86032 195 6.05109 195 6.25Z" fill="black"/>
</g>
<g clip-path="url(#clip3_599_3018)">
<path d="M224.601 20.5H236.899C236.978 20.5001 237.056 20.4845 237.129 20.4543C237.202 20.4241 237.268 20.3798 237.324 20.324C237.38 20.2681 237.424 20.2018 237.454 20.1288C237.485 20.0558 237.5 19.9776 237.5 19.8986V18.1014C237.5 18.0224 237.485 17.9442 237.454 17.8712C237.424 17.7982 237.38 17.7319 237.324 17.676C237.268 17.6202 237.202 17.5759 237.129 17.5457C237.056 17.5154 236.978 17.4999 236.899 17.5H224.601C224.522 17.4999 224.444 17.5154 224.371 17.5457C224.298 17.5759 224.232 17.6202 224.176 17.676C224.12 17.7319 224.076 17.7982 224.046 17.8712C224.015 17.9442 224 18.0224 224 18.1014V19.8986C224 19.9776 224.015 20.0558 224.046 20.1288C224.076 20.2018 224.12 20.2681 224.176 20.324C224.232 20.3798 224.298 20.4241 224.371 20.4543C224.444 20.4845 224.522 20.5001 224.601 20.5ZM224.601 8.5H236.899C236.978 8.50006 237.056 8.48455 237.129 8.45435C237.202 8.42414 237.268 8.37985 237.324 8.32399C237.38 8.26813 237.424 8.20181 237.454 8.12881C237.485 8.05582 237.5 7.97759 237.5 7.89859V6.10141C237.5 6.02241 237.485 5.94418 237.454 5.87119C237.424 5.79819 237.38 5.73187 237.324 5.67601C237.268 5.62015 237.202 5.57586 237.129 5.54565C237.056 5.51545 236.978 5.49994 236.899 5.5H224.601C224.522 5.49994 224.444 5.51545 224.371 5.54565C224.298 5.57586 224.232 5.62015 224.176 5.67601C224.12 5.73187 224.076 5.79819 224.046 5.87119C224.015 5.94418 224 6.02241 224 6.10141V7.89859C224 7.97759 224.015 8.05582 224.046 8.12881C224.076 8.20181 224.12 8.26813 224.176 8.32399C224.232 8.37985 224.298 8.42414 224.371 8.45435C224.444 8.48455 224.522 8.50006 224.601 8.5ZM244.25 11.5H224.75C224.551 11.5 224.36 11.579 224.22 11.7197C224.079 11.8603 224 12.0511 224 12.25V13.75C224 13.9489 224.079 14.1397 224.22 14.2803C224.36 14.421 224.551 14.5 224.75 14.5H244.25C244.449 14.5 244.64 14.421 244.78 14.2803C244.921 14.1397 245 13.9489 245 13.75V12.25C245 12.0511 244.921 11.8603 244.78 11.7197C244.64 11.579 244.449 11.5 244.25 11.5ZM244.25 23.5H224.75C224.551 23.5 224.36 23.579 224.22 23.7197C224.079 23.8603 224 24.0511 224 24.25V25.75C224 25.9489 224.079 26.1397 224.22 26.2803C224.36 26.421 224.551 26.5 224.75 26.5H244.25C244.449 26.5 244.64 26.421 244.78 26.2803C244.921 26.1397 245 25.9489 245 25.75V24.25C245 24.0511 244.921 23.8603 244.78 23.7197C244.64 23.579 244.449 23.5 244.25 23.5Z" fill="black"/>
</g>
<path d="M253.586 14.8H258.41C258.744 14.8 258.911 15.2031 258.675 15.4394L256.264 17.8525C256.117 17.9988 255.879 17.9988 255.733 17.8525L253.322 15.4394C253.085 15.2031 253.252 14.8 253.586 14.8Z" fill="black"/>
<path d="M285.895 22.7969L286.716 21.8523C286.879 21.6703 286.964 21.4315 286.953 21.1872V21.032C286.953 20.6875 286.773 20.5 286.422 20.5H283.75C283.651 20.5 283.555 20.5395 283.485 20.6098C283.415 20.6802 283.375 20.7755 283.375 20.875V21.625C283.375 21.7245 283.415 21.8198 283.485 21.8902C283.555 21.9605 283.651 22 283.75 22H284.82C284.638 22.1832 284.466 22.3758 284.305 22.577L284.042 22.9052C283.854 23.1428 283.795 23.38 283.91 23.6027L283.96 23.6931C284.1 23.9631 284.254 24.0625 284.534 24.0625H284.755C285.24 24.0625 285.503 24.1769 285.503 24.4886C285.503 24.7098 285.306 24.8739 284.83 24.8739C284.581 24.8719 284.335 24.8223 284.104 24.7277C283.8 24.5458 283.554 24.5636 283.373 24.8739L283.111 25.3103C282.937 25.5977 282.962 25.8597 283.234 26.0575C283.596 26.2773 284.19 26.5 284.969 26.5C286.57 26.5 287.242 25.4336 287.242 24.4319C287.241 23.7578 286.815 23.0369 285.895 22.7969ZM306.25 14.5H291.25C291.051 14.5 290.86 14.579 290.72 14.7197C290.579 14.8603 290.5 15.0511 290.5 15.25V16.75C290.5 16.9489 290.579 17.1397 290.72 17.2803C290.86 17.421 291.051 17.5 291.25 17.5H306.25C306.449 17.5 306.64 17.421 306.78 17.2803C306.921 17.1397 307 16.9489 307 16.75V15.25C307 15.0511 306.921 14.8603 306.78 14.7197C306.64 14.579 306.449 14.5 306.25 14.5ZM306.25 7H291.25C291.051 7 290.86 7.07902 290.72 7.21967C290.579 7.36032 290.5 7.55109 290.5 7.75V9.25C290.5 9.44891 290.579 9.63968 290.72 9.78033C290.86 9.92098 291.051 10 291.25 10H306.25C306.449 10 306.64 9.92098 306.78 9.78033C306.921 9.63968 307 9.44891 307 9.25V7.75C307 7.55109 306.921 7.36032 306.78 7.21967C306.64 7.07902 306.449 7 306.25 7ZM306.25 22H291.25C291.051 22 290.86 22.079 290.72 22.2197C290.579 22.3603 290.5 22.5511 290.5 22.75V24.25C290.5 24.4489 290.579 24.6397 290.72 24.7803C290.86 24.921 291.051 25 291.25 25H306.25C306.449 25 306.64 24.921 306.78 24.7803C306.921 24.6397 307 24.4489 307 24.25V22.75C307 22.5511 306.921 22.3603 306.78 22.2197C306.64 22.079 306.449 22 306.25 22ZM283.75 11.5H286.75C286.849 11.5 286.945 11.4605 287.015 11.3902C287.085 11.3198 287.125 11.2245 287.125 11.125V10.375C287.125 10.2755 287.085 10.1802 287.015 10.1098C286.945 10.0395 286.849 10 286.75 10H286V5.875C286 5.77554 285.96 5.68016 285.89 5.60984C285.82 5.53951 285.724 5.5 285.625 5.5H284.5C284.43 5.50012 284.362 5.51956 284.303 5.55615C284.244 5.59274 284.196 5.64503 284.165 5.70719L283.79 6.45719C283.762 6.51431 283.748 6.57779 283.751 6.6416C283.754 6.70541 283.773 6.76744 283.806 6.82181C283.84 6.87618 283.887 6.92109 283.943 6.95227C283.998 6.98346 284.061 6.99989 284.125 7H284.5V10H283.75C283.651 10 283.555 10.0395 283.485 10.1098C283.415 10.1802 283.375 10.2755 283.375 10.375V11.125C283.375 11.2245 283.415 11.3198 283.485 11.3902C283.555 11.4605 283.651 11.5 283.75 11.5ZM283.567 19H286.75C286.849 19 286.945 18.9605 287.015 18.8902C287.085 18.8198 287.125 18.7245 287.125 18.625V17.875C287.125 17.7755 287.085 17.6802 287.015 17.6098C286.945 17.5395 286.849 17.5 286.75 17.5H284.937C285.091 17.0177 287.203 16.6244 287.203 14.8544C287.203 13.4922 286.031 13 285.118 13C284.117 13 283.534 13.4688 283.222 13.8789C283.017 14.1409 283.081 14.387 283.353 14.5994L283.755 14.9219C284.018 15.1356 284.271 15.0377 284.511 14.8075C284.629 14.6915 284.788 14.6268 284.954 14.6275C285.11 14.6275 285.389 14.7006 285.389 15.0377C285.391 15.6339 283 16.0614 283 18.2777V18.4652C283 18.8125 283.238 19 283.567 19Z" fill="black"/>
<path d="M315.586 14.8H320.41C320.744 14.8 320.911 15.2031 320.675 15.4394L318.264 17.8525C318.117 17.9988 317.879 17.9988 317.733 17.8525L315.322 15.4394C315.085 15.2031 315.252 14.8 315.586 14.8Z" fill="black"/>
<path d="M366.75 16H363V13C363 11.3453 364.345 10 366 10H366.375C366.998 10 367.5 9.49844 367.5 8.875V6.625C367.5 6.00156 366.998 5.5 366.375 5.5H366C361.856 5.5 358.5 8.85625 358.5 13V24.25C358.5 25.4922 359.508 26.5 360.75 26.5H366.75C367.992 26.5 369 25.4922 369 24.25V18.25C369 17.0078 367.992 16 366.75 16ZM353.25 16H349.5V13C349.5 11.3453 350.845 10 352.5 10H352.875C353.498 10 354 9.49844 354 8.875V6.625C354 6.00156 353.498 5.5 352.875 5.5H352.5C348.356 5.5 345 8.85625 345 13V24.25C345 25.4922 346.008 26.5 347.25 26.5H353.25C354.492 26.5 355.5 25.4922 355.5 24.25V18.25C355.5 17.0078 354.492 16 353.25 16Z" fill="black"/>
<path d="M377.586 14.8H382.41C382.744 14.8 382.911 15.2031 382.675 15.4394L380.264 17.8525C380.117 17.9988 379.879 17.9988 379.733 17.8525L377.322 15.4394C377.085 15.2031 377.252 14.8 377.586 14.8Z" fill="black"/>
<g clip-path="url(#clip4_599_3018)">
<path d="M426.31 12.6897C429.111 15.4933 429.072 19.9881 426.327 22.7486C426.322 22.7542 426.316 22.7603 426.31 22.766L423.16 25.916C420.382 28.6942 415.862 28.6939 413.084 25.916C410.305 23.1382 410.305 18.6175 413.084 15.8397L414.823 14.1004C415.284 13.6391 416.079 13.9457 416.102 14.5975C416.133 15.4282 416.282 16.2629 416.557 17.0688C416.65 17.3417 416.583 17.6436 416.379 17.8475L415.766 18.461C414.452 19.7747 414.411 21.9138 415.712 23.2403C417.025 24.58 419.185 24.5879 420.508 23.2642L423.658 20.1147C424.98 18.7933 424.974 16.6574 423.658 15.3414C423.485 15.1683 423.31 15.0337 423.174 14.9398C423.077 14.8735 422.997 14.7855 422.941 14.6829C422.884 14.5803 422.852 14.4659 422.848 14.3489C422.829 13.8535 423.005 13.3431 423.396 12.9517L424.383 11.9648C424.642 11.706 425.048 11.6742 425.348 11.8836C425.692 12.1236 426.014 12.3933 426.31 12.6897ZM432.916 6.08307C430.138 3.30516 425.618 3.30479 422.84 6.08307L419.69 9.23306C419.684 9.23869 419.678 9.24478 419.673 9.25041C416.928 12.011 416.889 16.5058 419.69 19.3093C419.986 19.6057 420.308 19.8754 420.652 20.1154C420.952 20.3248 421.358 20.293 421.617 20.0342L422.604 19.0473C422.995 18.6559 423.171 18.1455 423.152 17.6501C423.148 17.5331 423.116 17.4187 423.059 17.3161C423.003 17.2135 422.923 17.1255 422.826 17.0592C422.69 16.9652 422.515 16.8307 422.342 16.6575C421.026 15.3416 421.02 13.2057 422.342 11.8843L425.492 8.73474C426.815 7.41103 428.975 7.419 430.288 8.75864C431.589 10.0852 431.548 12.2243 430.234 13.538L429.621 14.1515C429.417 14.3554 429.35 14.6572 429.443 14.9302C429.718 15.7361 429.867 16.5707 429.897 17.4015C429.921 18.0533 430.716 18.3599 431.177 17.8986L432.916 16.1593C435.695 13.3815 435.695 8.86088 432.916 6.08307Z" fill="black"/>
</g>
<path d="M488.75 25H469.25C468.007 25 467 23.9927 467 22.75V9.25C467 8.00734 468.007 7 469.25 7H488.75C489.993 7 491 8.00734 491 9.25V22.75C491 23.9927 489.993 25 488.75 25ZM472.25 9.625C470.8 9.625 469.625 10.8003 469.625 12.25C469.625 13.6997 470.8 14.875 472.25 14.875C473.7 14.875 474.875 13.6997 474.875 12.25C474.875 10.8003 473.7 9.625 472.25 9.625ZM470 22H488V16.75L483.898 12.6477C483.678 12.4281 483.322 12.4281 483.102 12.6477L476.75 19L474.148 16.3977C473.928 16.1781 473.572 16.1781 473.352 16.3977L470 19.75V22Z" fill="black"/>
<path d="M547 10.75V24.25C547 25.4922 545.992 26.5 544.75 26.5H525.25C524.008 26.5 523 25.4922 523 24.25V10.75C523 9.50781 524.008 8.5 525.25 8.5H529.375L529.952 6.95781C530.28 6.08125 531.119 5.5 532.056 5.5H537.939C538.877 5.5 539.716 6.08125 540.044 6.95781L540.625 8.5H544.75C545.992 8.5 547 9.50781 547 10.75ZM540.625 17.5C540.625 14.3969 538.103 11.875 535 11.875C531.897 11.875 529.375 14.3969 529.375 17.5C529.375 20.6031 531.897 23.125 535 23.125C538.103 23.125 540.625 20.6031 540.625 17.5ZM539.125 17.5C539.125 19.7734 537.273 21.625 535 21.625C532.727 21.625 530.875 19.7734 530.875 17.5C530.875 15.2266 532.727 13.375 535 13.375C537.273 13.375 539.125 15.2266 539.125 17.5Z" fill="black"/>
<path d="M600.75 5.5H581.25C580.007 5.5 579 6.50734 579 7.75V24.25C579 25.4927 580.007 26.5 581.25 26.5H600.75C601.993 26.5 603 25.4927 603 24.25V7.75C603 6.50734 601.993 5.5 600.75 5.5ZM589.5 23.5H582V19H589.5V23.5ZM589.5 16H582V11.5H589.5V16ZM600 23.5H592.5V19H600V23.5ZM600 16H592.5V11.5H600V16Z" fill="black"/>
<defs>
<clipPath id="clip0_599_3018">
<rect width="18" height="24" fill="white" transform="translate(7 4)"/>
</clipPath>
<clipPath id="clip1_599_3018">
<rect width="23.25" height="24" fill="white" transform="translate(116 4)"/>
</clipPath>
<clipPath id="clip2_599_3018">
<rect width="21" height="24" fill="white" transform="translate(174 4)"/>
</clipPath>
<clipPath id="clip3_599_3018">
<rect width="21" height="24" fill="white" transform="translate(224 4)"/>
</clipPath>
<clipPath id="clip4_599_3018">
<rect width="24" height="24" fill="white" transform="translate(411 4)"/>
</clipPath>
</defs>
</svg>
