<svg width="11" height="5" viewBox="0 0 11 5" fill="none" xmlns="http://www.w3.org/2000/svg">
<path d="M0.550065 4.4005C0.47783 4.4005 0.406299 4.38628 0.339562 4.35863C0.272824 4.33099 0.212183 4.29048 0.161105 4.2394C0.110026 4.18832 0.0695101 4.12768 0.0418677 4.06094C0.0142253 3.9942 -2.32303e-06 3.92267 2.84494e-10 3.85043V3.30038C0.00431402 2.42668 0.353193 1.58996 0.970848 0.972C1.5885 0.354039 2.42504 0.00474655 3.29874 0H10.4512C10.5971 0 10.737 0.0579525 10.8401 0.161109C10.9433 0.264266 11.0013 0.404171 11.0013 0.550057C11.0013 0.695943 10.9433 0.835857 10.8401 0.939014C10.737 1.04217 10.5971 1.10012 10.4512 1.10012H3.30038C2.71762 1.10358 2.15973 1.33672 1.7478 1.74896C1.33588 2.1612 1.10315 2.71926 1.10013 3.30202V3.85043C1.10013 3.92267 1.0859 3.9942 1.05826 4.06093C1.03062 4.12767 0.9901 4.18831 0.939022 4.23939C0.887943 4.29047 0.827307 4.33099 0.760569 4.35863C0.693831 4.38628 0.622301 4.4005 0.550065 4.4005Z" fill="white"/>
</svg>
