<svg width="29" height="27" viewBox="0 0 29 27" fill="none" xmlns="http://www.w3.org/2000/svg">
<path d="M13.2408 0.560391C13.6096 -0.18676 14.675 -0.186757 15.0437 0.560393L18.6354 7.83787C18.7818 8.13456 19.0648 8.3402 19.3923 8.38778L27.4234 9.55478C28.248 9.67459 28.5772 10.6879 27.9806 11.2694L22.1691 16.9342C21.9322 17.1651 21.8241 17.4978 21.88 17.8239L23.2519 25.8227C23.3928 26.6438 22.5308 27.2701 21.7934 26.8824L14.6101 23.1059C14.3172 22.9519 13.9673 22.9519 13.6745 23.1059L6.49119 26.8824C5.75371 27.2701 4.89177 26.6438 5.03262 25.8226L6.40451 17.8239C6.46044 17.4978 6.35233 17.1651 6.1154 16.9342L0.303991 11.2694C-0.292644 10.6879 0.0365884 9.67459 0.861118 9.55478L8.89229 8.38778C9.21971 8.3402 9.50275 8.13456 9.64918 7.83786L13.2408 0.560391Z" fill="#656084"/>
</svg>
