<svg width="41" height="86" viewBox="0 0 41 86" fill="none" xmlns="http://www.w3.org/2000/svg">
<circle cx="2.5" cy="2.5" r="2.5" fill="#F2F0FE"/>
<circle cx="2.5" cy="11.5" r="2.5" fill="#F2F0FE"/>
<circle cx="2.5" cy="20.5" r="2.5" fill="#F2F0FE"/>
<circle cx="2.5" cy="29.5" r="2.5" fill="#F2F0FE"/>
<circle cx="2.5" cy="38.5" r="2.5" fill="#F2F0FE"/>
<circle cx="2.5" cy="47.5" r="2.5" fill="#F2F0FE"/>
<circle cx="2.5" cy="56.5" r="2.5" fill="#F2F0FE"/>
<circle cx="2.5" cy="65.5" r="2.5" fill="#F2F0FE"/>
<circle cx="2.5" cy="74.5" r="2.5" fill="#F2F0FE"/>
<circle cx="2.5" cy="83.5" r="2.5" fill="#F2F0FE"/>
<circle cx="11.5" cy="2.5" r="2.5" fill="#F2F0FE"/>
<circle cx="11.5" cy="11.5" r="2.5" fill="#F2F0FE"/>
<circle cx="11.5" cy="20.5" r="2.5" fill="#F2F0FE"/>
<circle cx="11.5" cy="29.5" r="2.5" fill="#F2F0FE"/>
<circle cx="11.5" cy="38.5" r="2.5" fill="#F2F0FE"/>
<circle cx="11.5" cy="47.5" r="2.5" fill="#F2F0FE"/>
<circle cx="11.5" cy="56.5" r="2.5" fill="#F2F0FE"/>
<circle cx="11.5" cy="65.5" r="2.5" fill="#F2F0FE"/>
<circle cx="11.5" cy="74.5" r="2.5" fill="#F2F0FE"/>
<circle cx="11.5" cy="83.5" r="2.5" fill="#F2F0FE"/>
<circle cx="20.5" cy="2.5" r="2.5" fill="#F2F0FE"/>
<circle cx="20.5" cy="11.5" r="2.5" fill="#F2F0FE"/>
<circle cx="20.5" cy="20.5" r="2.5" fill="#F2F0FE"/>
<circle cx="20.5" cy="29.5" r="2.5" fill="#F2F0FE"/>
<circle cx="20.5" cy="38.5" r="2.5" fill="#F2F0FE"/>
<circle cx="20.5" cy="47.5" r="2.5" fill="#F2F0FE"/>
<circle cx="20.5" cy="56.5" r="2.5" fill="#F2F0FE"/>
<circle cx="20.5" cy="65.5" r="2.5" fill="#F2F0FE"/>
<circle cx="20.5" cy="74.5" r="2.5" fill="#F2F0FE"/>
<circle cx="20.5" cy="83.5" r="2.5" fill="#F2F0FE"/>
<circle cx="29.5" cy="2.5" r="2.5" fill="#F2F0FE"/>
<circle cx="29.5" cy="11.5" r="2.5" fill="#F2F0FE"/>
<circle cx="29.5" cy="20.5" r="2.5" fill="#F2F0FE"/>
<circle cx="29.5" cy="29.5" r="2.5" fill="#F2F0FE"/>
<circle cx="29.5" cy="38.5" r="2.5" fill="#F2F0FE"/>
<circle cx="29.5" cy="47.5" r="2.5" fill="#F2F0FE"/>
<circle cx="29.5" cy="56.5" r="2.5" fill="#F2F0FE"/>
<circle cx="29.5" cy="65.5" r="2.5" fill="#F2F0FE"/>
<circle cx="29.5" cy="74.5" r="2.5" fill="#F2F0FE"/>
<circle cx="29.5" cy="83.5" r="2.5" fill="#F2F0FE"/>
<circle cx="38.5" cy="2.5" r="2.5" fill="#F2F0FE"/>
<circle cx="38.5" cy="11.5" r="2.5" fill="#F2F0FE"/>
<circle cx="38.5" cy="20.5" r="2.5" fill="#F2F0FE"/>
<circle cx="38.5" cy="29.5" r="2.5" fill="#F2F0FE"/>
<circle cx="38.5" cy="38.5" r="2.5" fill="#F2F0FE"/>
<circle cx="38.5" cy="47.5" r="2.5" fill="#F2F0FE"/>
<circle cx="38.5" cy="56.5" r="2.5" fill="#F2F0FE"/>
<circle cx="38.5" cy="65.5" r="2.5" fill="#F2F0FE"/>
<circle cx="38.5" cy="74.5" r="2.5" fill="#F2F0FE"/>
<circle cx="38.5" cy="83.5" r="2.5" fill="#F2F0FE"/>
</svg>
