<svg width="141" height="159" viewBox="0 0 141 159" fill="none" xmlns="http://www.w3.org/2000/svg">
<g filter="url(#filter0_d_2_73)">
<path fill-rule="evenodd" clip-rule="evenodd" d="M44 0C32.9543 0 24 8.9543 24 20V89C24 100.046 32.9543 109 44 109H99.7157C105.02 109 110.107 111.107 113.858 114.858L124.464 125.464C127.614 128.614 133 126.383 133 121.929V89V77.5V20C133 8.95431 124.046 0 113 0H44Z" fill="#F6FAFD"/>
</g>
<g clip-path="url(#clip0_2_73)">
<path d="M59.7726 36.8031C59.7735 36.8024 59.7741 36.8019 59.7749 36.8011L67.5835 34.1142L81.2148 36.8012V42.7474L58.885 46.4313L54.903 42.7474C56.1975 40.5105 57.847 38.5028 59.7726 36.8031Z" fill="#E7A52E"/>
<path d="M59.7747 72.4778L69.9667 70.5387L81.2148 72.4778V78.424H75.5046C69.5329 78.424 64.0756 76.2229 59.899 72.588" fill="#E7A52E"/>
<path d="M81.2148 66.5318L65.1336 68.8596L54.9029 66.5317C53.8382 64.6913 53.0125 62.6952 52.4695 60.5856L64.433 57.1366L81.2148 60.5856V66.5318Z" fill="#E7A52E"/>
<path d="M52.4695 48.6934L59.7747 44.3302L81.2148 48.6934V54.6395L57.805 58.8665L51.7202 54.6395C51.7202 52.586 51.9801 50.5941 52.4695 48.6934Z" fill="#E7A52E"/>
<path d="M55.0366 54.6395C55.0366 41.5037 65.6852 30.8551 78.821 30.8551C79.6291 30.8551 80.4275 30.8958 81.2148 30.9746V78.424H78.821C65.6853 78.4239 55.0366 67.7753 55.0366 54.6395Z" fill="#E28424"/>
<path d="M59.7747 36.8012C63.9673 33.1013 69.4733 30.8551 75.5046 30.8551H81.2148V36.8012H59.7747Z" fill="#C85929"/>
<path d="M81.2148 48.6934H52.4695C53.0125 46.5838 53.8382 44.5878 54.9029 42.7473H81.2148V48.6934Z" fill="#C85929"/>
<path d="M81.2148 60.5857H52.4695C51.9803 58.6851 51.7202 56.6927 51.7202 54.6395H81.2148V60.5857Z" fill="#C85929"/>
<path d="M81.2148 72.4778H59.7747C57.8477 70.7772 56.1978 68.7702 54.9029 66.5317H81.2148V72.4778Z" fill="#C85929"/>
<path d="M58.2193 66.5318H81.2148V72.4779H63.0911C61.1641 70.7774 59.5142 68.7702 58.2193 66.5318Z" fill="#B94029"/>
<path d="M55.0366 54.6395H81.2148V60.5857H55.7859C55.2969 58.6851 55.0366 56.6927 55.0366 54.6395Z" fill="#B94029"/>
<path d="M58.2193 42.7473H81.2148V48.6934H55.7859C56.3288 46.5838 57.1546 44.5878 58.2193 42.7473Z" fill="#B94029"/>
<path d="M78.821 30.8551C79.6291 30.8551 80.4275 30.8958 81.2148 30.9746V36.8012H63.0911C67.2837 33.1013 72.7897 30.8551 78.821 30.8551Z" fill="#B94029"/>
<path d="M81.2156 78.4239C68.0798 78.4239 57.4312 67.7753 57.4312 54.6395C57.4312 41.5038 68.0798 30.8551 81.2156 30.8551C94.3514 30.8551 105 41.5038 105 54.6395C105 67.7753 94.3514 78.4239 81.2156 78.4239Z" fill="#F6E266"/>
<path d="M97.0039 72.4276C95.8015 73.4954 94.491 74.4442 93.0895 75.2531L86.5652 31.459C88.1545 31.8241 89.6824 32.3494 91.1324 33.0154L97.0039 72.4276Z" fill="#FBF4AF"/>
<path d="M81.2156 30.8551C81.6479 30.8551 82.0773 30.8674 82.5039 30.8902C69.9672 31.5594 60.0077 41.936 60.0077 54.6395C60.0077 67.343 69.9673 77.7197 82.5039 78.389C82.0773 78.4118 81.6479 78.424 81.2156 78.424C68.0798 78.424 57.4312 67.7754 57.4312 54.6396C57.4312 41.5038 68.0798 30.8551 81.2156 30.8551Z" fill="#EAB14D"/>
<path d="M81.2159 73.7947C70.6368 73.7947 62.0607 65.2186 62.0607 54.6395C62.0607 44.0604 70.6368 35.4843 81.2159 35.4843C91.795 35.4843 100.371 44.0604 100.371 54.6395C100.371 65.2186 91.795 73.7947 81.2159 73.7947Z" fill="#E7A52E"/>
<path d="M81.2163 35.4843C81.6954 35.4843 82.1704 35.5025 82.6406 35.5371C72.7268 36.2658 64.9097 44.5396 64.9097 54.6395C64.9097 64.7394 72.7267 73.0132 82.6406 73.7419C82.1703 73.7765 81.6954 73.7947 81.2163 73.7947C70.6372 73.7947 62.0612 65.2186 62.0612 54.6395C62.0612 44.0604 70.6372 35.4843 81.2163 35.4843Z" fill="#E28424"/>
<path d="M96.1406 66.6451C95.0437 68.0071 93.7649 69.2162 92.34 70.2346L87.3107 36.475C88.987 37.0372 90.5595 37.8252 91.9928 38.8024L96.1406 66.6451Z" fill="#EAB14D"/>
<path d="M80.6315 44.0869L77.0155 49.6422C76.9218 49.7863 76.778 49.8907 76.612 49.9354L70.2112 51.6577C69.724 51.7888 69.5326 52.3777 69.8498 52.7701L74.0158 57.9258C74.1238 58.0595 74.1787 58.2284 74.1699 58.4001L73.83 65.0198C73.8041 65.5236 74.305 65.8875 74.7762 65.7073L80.9669 63.3385C81.1275 63.2771 81.3051 63.2771 81.4657 63.3385L87.6563 65.7073C88.1275 65.8876 88.6285 65.5236 88.6026 65.0198L88.2627 58.4001C88.2539 58.2284 88.3088 58.0595 88.4168 57.9258L92.5828 52.7701C92.8999 52.3777 92.7086 51.7888 92.2214 51.6577L85.8206 49.9354C85.6546 49.8907 85.5109 49.7862 85.4171 49.6422L81.8011 44.0869C81.5259 43.6641 80.9068 43.6641 80.6315 44.0869Z" fill="#C85929"/>
<path d="M70.2102 51.6578L76.611 49.9355C76.777 49.8907 76.9207 49.7863 77.0146 49.6423L77.319 49.1746C77.3496 52.7042 77.8589 58.3873 80.3594 63.5707L74.7753 65.7075C74.3041 65.8879 73.8031 65.5239 73.829 65.02L74.1689 58.4003C74.1778 58.2286 74.1228 58.0597 74.0148 57.926L69.8488 52.7703C69.5318 52.3777 69.7231 51.7889 70.2102 51.6578Z" fill="#B94029"/>
</g>
<defs>
<filter id="filter0_d_2_73" x="0" y="0" width="141" height="158.939" filterUnits="userSpaceOnUse" color-interpolation-filters="sRGB">
<feFlood flood-opacity="0" result="BackgroundImageFix"/>
<feColorMatrix in="SourceAlpha" type="matrix" values="0 0 0 0 0 0 0 0 0 0 0 0 0 0 0 0 0 0 127 0" result="hardAlpha"/>
<feOffset dx="-8" dy="16"/>
<feGaussianBlur stdDeviation="8"/>
<feColorMatrix type="matrix" values="0 0 0 0 0 0 0 0 0 0 0 0 0 0 0 0 0 0 0.04 0"/>
<feBlend mode="normal" in2="BackgroundImageFix" result="effect1_dropShadow_2_73"/>
<feBlend mode="normal" in="SourceGraphic" in2="effect1_dropShadow_2_73" result="shape"/>
</filter>
<clipPath id="clip0_2_73">
<rect width="53.2791" height="53.2791" fill="white" transform="matrix(-1 0 0 1 105 28)"/>
</clipPath>
</defs>
</svg>
