<svg width="24" height="24" viewBox="0 0 24 24" fill="none" xmlns="http://www.w3.org/2000/svg">
<path d="M12.0004 0C12.3186 0 12.6238 0.126428 12.8489 0.351472C13.0739 0.576516 13.2004 0.88174 13.2004 1.2V3.6384L13.1992 3.6636L13.1968 3.6996C14.8751 3.9829 16.3989 4.85145 17.4979 6.1512C18.5969 7.45095 19.2 9.09791 19.2004 10.8C19.2004 14.5116 19.9504 15.9744 21.1192 18.252L21.16 18.3336C21.364 18.7296 21.076 19.2 20.6296 19.2H3.37117C3.26919 19.2001 3.16889 19.174 3.0799 19.1242C2.99091 19.0744 2.91621 19.0025 2.86296 18.9156C2.80971 18.8286 2.77971 18.7294 2.77582 18.6275C2.77194 18.5256 2.7943 18.4244 2.84077 18.3336L2.88157 18.252C4.05037 15.9744 4.80037 14.5116 4.80037 10.8C4.80045 9.0977 5.40347 7.45046 6.50247 6.15046C7.60148 4.85046 9.12542 3.98174 10.804 3.6984L10.8016 3.6504C10.8007 3.63361 10.8003 3.61681 10.8004 3.6V1.2C10.8004 0.88174 10.9268 0.576516 11.1518 0.351472C11.3769 0.126428 11.6821 0 12.0004 0V0ZM14.4004 21.6C14.4004 22.2365 14.1475 22.847 13.6974 23.2971C13.2473 23.7471 12.6369 24 12.0004 24C11.3638 24 10.7534 23.7471 10.3033 23.2971C9.85322 22.847 9.60037 22.2365 9.60037 21.6H14.4004Z" fill="#B0AAD0"/>
</svg>
