<svg width="5" height="5" viewBox="0 0 5 5" fill="none" xmlns="http://www.w3.org/2000/svg">
<path d="M4.98026 4.8846L0.11536 0.0196745C0.105899 0.0102696 0.0938698 0.00387098 0.080783 0.0012838C0.0676961 -0.00130337 0.0541343 3.90667e-05 0.0418065 0.00513651C0.0294787 0.010234 0.0189345 0.0188582 0.0114963 0.0299322C0.00405822 0.0410063 5.61223e-05 0.0540348 0 0.0673749V4.45869C0 4.60224 0.0570276 4.73991 0.158533 4.84142C0.260039 4.94292 0.397712 4.99995 0.541263 4.99995H4.93255C4.94589 4.99989 4.95892 4.9959 4.96999 4.98846C4.98107 4.98102 4.98969 4.97047 4.99479 4.95814C4.99989 4.94581 5.00123 4.93226 4.99864 4.91917C4.99606 4.90608 4.98966 4.89405 4.98025 4.88459L4.98026 4.8846Z" fill="white"/>
</svg>
