<svg width="20" height="20" viewBox="0 0 20 20" fill="none" xmlns="http://www.w3.org/2000/svg">
<path fill-rule="evenodd" clip-rule="evenodd" d="M3.07 6C4.02464 4.34995 5.53549 3.09363 7.332 2.456C6.57329 3.54044 5.98732 4.73598 5.595 6H3.07ZM2.252 8C2.08417 8.6534 1.9995 9.32539 2 10C2 10.69 2.088 11.36 2.252 12H5.142C5.04654 11.3376 4.99908 10.6692 5 10C5 9.296 5.051 8.629 5.143 8H2.252ZM7.168 8C7.06 8.62 7 9.286 7 10C7 10.713 7.061 11.38 7.168 12H12.832C12.939 11.38 13 10.713 13 10C13 9.286 12.939 8.62 12.832 8H7.168ZM14.858 8C14.948 8.629 15 9.296 15 10C15 10.704 14.949 11.371 14.857 12H17.748C17.913 11.36 18 10.69 18 10C18 9.31 17.913 8.64 17.748 8H14.858ZM16.93 6H14.405C14.0126 4.736 13.4267 3.54047 12.668 2.456C14.4645 3.09363 15.9754 4.34995 16.93 6ZM12.292 6H7.708C8.032 5.135 8.433 4.404 8.832 3.805C9.254 3.172 9.674 2.688 10 2.353C10.326 2.688 10.746 3.173 11.168 3.805C11.568 4.404 11.968 5.135 12.292 6ZM11.168 16.195C11.568 15.596 11.968 14.865 12.292 14H7.708C8.032 14.865 8.433 15.596 8.832 16.195C9.254 16.828 9.674 17.312 10 17.647C10.326 17.312 10.746 16.827 11.168 16.195ZM3.07 14H5.595C5.98732 15.264 6.57329 16.4596 7.332 17.544C5.53549 16.9064 4.02464 15.65 3.07 14ZM12.832 17.305C12.7782 17.3856 12.7236 17.4656 12.668 17.545C14.4647 16.9071 15.9755 15.6504 16.93 14H14.405C14.0416 15.1713 13.5119 16.2843 12.832 17.305ZM20 10C20 15.52 15.528 19.994 10.01 20H9.988C4.47 19.994 0 15.519 0 10C0 4.477 4.477 0 10 0C15.523 0 20 4.477 20 10Z" fill="#656084"/>
</svg>
